<?xml version="1.0" encoding="UTF-8"?>
<svg id="Layer_1" xmlns="http://www.w3.org/2000/svg" version="1.1" viewBox="0 0 34.2 34.2">
  <!-- Generator: Adobe Illustrator 30.0.0, SVG Export Plug-In . SVG Version: 2.1.1 Build 123)  -->
  <defs>
    <style>
      .st0 {
        fill: #fb8537;
      }

      .st1 {
        fill: #fff;
      }
    </style>
  </defs>
  <path class="st1" d="M105.3,119.9"/>
  <path class="st0" d="M26.8,9.8c.2.2.4.5.5.8-2.5.2-7,2.3-7.9,2.8-.4.1-1,.5-1.1,1.6,0,0,0,.1,0,.1,0,0,0,0-.3.2-.9.3-1.2.5-1.4,1l-.2.6.3.5.5.9.9-.3c.3-.1.6-.2.9-.4,1.5-.6,4.9-1.7,6.3-2.2l3.3,2.5-20.5,6.7-2.3-3.1,9.3-2.9.6-.2.2-.6s.7-2.2,1.2-3.4c.5-1.3.8-1.4,2.3-1.9l.4-.2c.5-.2,1.3-.4,2.1-.7,1.8-.5,3.7-1.1,4.9-1.8M26.8,8.4c-.2,0-.3,0-.4.1-1.3.9-5.1,1.8-6.9,2.5-1.9.7-2.7.8-3.5,2.8-.5,1.3-1.2,3.6-1.2,3.6l-11,3.4,3.9,5.2,23.6-7.7-5.7-4.4s-5,1.7-7,2.4c-.2.1-.5.2-.8.3,0,0,.3-.1.8-.3,1.6-.8.6-1.8,1.2-1.8,0,0,5.3-2.6,7.7-2.7h0c2.1-.1.6-3.4-.7-3.4h0Z"/>
</svg>