<?xml version="1.0" encoding="UTF-8"?>
<svg id="Layer_1" data-name="Layer 1" xmlns="http://www.w3.org/2000/svg" viewBox="0 0 450.79 328.6">
  <defs>
    <style>
      .cls-1 {
        fill: #d77539;
      }

      .cls-2 {
        fill: #e0caad;
      }

      .cls-3 {
        fill: #e47931;
      }

      .cls-4 {
        fill: #ca875d;
      }

      .cls-5 {
        fill: #d0b499;
      }

      .cls-6 {
        fill: #da7c45;
      }

      .cls-7 {
        fill: #f38443;
      }

      .cls-8 {
        fill: #e9d8cb;
      }

      .cls-9 {
        fill: #997b5b;
      }

      .cls-10 {
        fill: #ce7f4b;
      }

      .cls-11 {
        fill: #b9a386;
      }

      .cls-12 {
        fill: #cd9977;
      }

      .cls-13 {
        fill: #f6a069;
      }

      .cls-14 {
        fill: #f4ece7;
      }

      .cls-15 {
        fill: #eb7d3d;
      }
    </style>
  </defs>
  <path class="cls-7" d="M137.2,50.9c1.1,2.2-2,2.8-1.8,3.8.4,1.6,4.4-.4,5.3,1.8l-3,3.3h-4.2c-1.4,0-2.2.5-3.3.6-2.3.2-7.7-1.2-8,1.8-.5.1-1.3-.1-1.8,0-2.5-2-2.2.5-2.4.6-.3.2-1.8-.2-2.6,0s-.4,1.2-.4,1.2c-.2.1-3.2.2-3.6.6-.7,1,3,4.3-3,4.1l.6-2.4c-1.1,0-3.8-.4-4.1.9-.6,2.4,2.4,1.8,3.5,2.3s3.8,3.7,3.6,5.6,0,.6,0,.6c-.1,0-2.6.4-1.2,1.8s1.7-1.1,1.8-1.2c.3-.2,5.8-1.4,7.1-1.8l2.4,1.8c-2.1.9-4.4,2.4-6.7,3.1l-2.8,2.8h-.6c-.7.2-1.4-.3-2.3.3s-.4,1-.8,1.3c-.8.5-1.9,0-2.2,2h-1.2c-2.9.6-5.7,1.2-8.6,1.8-1.8.3-1.4-3-.9-3.6s4.9-.7,5.7-3.5-4-5.3-5.7-3.6,1.5.9,1.2,1.8l-7.7,2.1-3,3.8c-.4.2-.8.4-1.2.6s-1.5-.3-2.7.6-3.3,4-3.8,4.8,0,.7-.3,1.2c-.7,1-2.8.9-2,3.2s1.7.3,1.7,2.1c-.7-.5-1.5-.6-2.4-.6-2.4,0-3.5.9-4.1,3.3s2.6,1.1,2.9,2.6c-.2.2-.5.4-.6.6s-.5.4-.6.6c-1.4,2.2-2.8,4.3-4.2,6.5s-1.6,2.8-2.4,4.1c-1.8,3.3-3.9,6.3-4.7,10.1-.4,1-.8,2.9-1.2,4.1s-.4.6-.6,1.2,0,.4,0,.6c-1.1.4-1.4,1.9-1.6,3s.4,1.6.4,1.7v1.8c-1.2,1.1-.6,3.3-.6,4.7-.3,0-.5.3-.6.6-1.4,3.6-.2,8.1-.6,11.9h1.8c.3-2.2.5-11.7,1.3-12.9s3.3.6,3.7.5c1.3-.2,1.8-4.3,2.2-4.7s.8,0,1.1,0v2.4c-.3,2.4-.9,4.8-1.2,7.1s-.5.6-.6,1.4c-.3,3.1.3,6.7,0,9.8-.7,1.8-1.9,2.6-2,4.6-.6,6.8,7.2,26.2,10.4,32.9s13.6,18.4,20.7,23.5,2.2,1.6,3.6,1.8v.6c.1.5.3.4.6.6.8.6,1.7.5,1.8.6,6.2,5,10.6,5.9,18,9s4.6,2.8,9.9,4.1c8.7,2,12.3,1.1,20.8-.6s2,.1,3.1-.1c2.4-.6,4.9-2,7.6-2.2,1-.2,0-5,0-5.2-.5-.6-3.5.1-2.9-1.9,1.9,1,5.2-1.4,6.1-1.1,1.5.4,1.3,2.5,1.7,2.8s5,1.5,5.8.7c1.2-1.7-4.4-4-5.6-4.7s-1.1-1-3.3-1.8-3.8-.8-5.3-2.1l3.6-.9c.7.1,1.6,1,2.4,1.2s.8.4,1.8.6,1.2-.1,1.8,0v.6c.5,1,1.5.9,2.4,1.2s1.9,1,2.2,1.1c.5,0,.7-.5.8-.5h1.2v1.8c0,.2-.7.1-.5.5,1.4,0,1.1,2.6,2.6,2.5,2.3-.1-.2-2.8-.3-3-.4-.6-1-1.2-1.2-1.8-.4-1.1,1-2.2-1.8-1.8-.4-.8-1.4-2.4-1.8-3,2.9.7,1.2-1.9,2.3-2.7s2.8,0,3.6-.5.2-2.5.6-3.2,6.8-.6,7.9-.2c1.9.6.4,1.7,4.4,1.8s2,0,3,0v.6c.8,1.9,0,2.8,1.8,4.1s1.8,1,3,1.2v.6c.3.7,0,1.5,1.2,1.8.2.4.4.8.6,1.2.3.7,1,1.1,1.2,2.1,1.1,5.7-2.6,1.9-5.5,3.8s-2.6,4.9-4.6,5.7-2-.4-2.6-.2-.7,1.3-1.4,1.7c-1.2.8-3.4.9-3.2,3.2s1.3.4,1.6,1.5c.4,1.7-.8,2.2-2.4,1.9s-.6-2.4-1.5-1.2.8,3.5,1,4c.5,1,2.8,1.6,1.9,2.5s-6.8.9-7.1.6l1.2-3.5-5.9,1.8c-.9,3.4,2.6,1.7,1.1,5.3s-.5.3-.6.6h-.6l-.6.6h-.6c-6.3,2.1-13.5,3.8-20,4.5-10.1,1.1-19.7.6-29.8-.3-15.3-3.4-28.6-9.9-40.3-20.1-1.6-2.3-3.9-4-5.9-5.9s-5-4.9-7.7-7.7c0-1.3-.6-4.5-1.5-5.3s-4.6-1.2-5-1.9,0-1.8-.3-2.7-4.3-3.7-5.2-3.7c-10.9-16.2-17.2-36.7-16-56.3,1.8.3,1.1-.9,1.2-2.1,1.7-23.1,13.5-48,27.7-65.4,14.2-17.4,3.6-2.2,3.2-4.2,2.8-2.7,7.3-6.3,10.7-8.3s3.1-.1,4.7-3.6c1.4-.3,2.7-.7,4.2-.6l-.6-1.2c2.4.5,4.4-3.1,5.8-3.5s2.3.6,3.3,0,.9-2.1,2-2.4,2.2,1.3,4.1,1.2.7-1,1.7-1.3,5.2,0,5.7-.5c1.7-1.6-3.1-1-3.5-1.3-1.9-1.3,1.1-2.7,2.6-2.9s2.7.7,3.1.5,2.5-3.3,4.3-3.5h.6l1.8-.6h.6c3-.5,6.9,0,9.5-1.8h.6c.6,0,1.1-.6,1.2-.6,1.6-.1,3.2.1,4.7,0l.1-.2ZM63.1,112.5c5.8.2,3-5.9.6-2.6s-.7,1.7-.6,2.6ZM58.6,156.9v.6c.4-.2.4-.4,0-.6ZM59.5,158.7c-1.4,0-1-.2-1.2.9-.3,2.6-.5,8.8,3,9.2.7-3.8-2.2-6.5-1.8-10.1h0Z"/>
  <path class="cls-15" d="M200.7,224.5c2,1.9.7,2.9-.6,4.7h-.6c-.2,0-.2-.5-1.2-.6-1.9,0-1.9-.1-3,1.2s-2,3.6-2.4,4.7c-1,2.8,4,5.5,5.6,7.7.8-.3.7-1.5.9-1.8,1-1.2,2.8.2,2.4-1.8h.6c.2,0,.3,1.7,2.2.8s1-1.8,1.3-2.5,1.6-.5,1.2-2.7-1.2-1.1-1.8-1.5-.4-.5-.6-.6c-.7-1.9,2.2-1,3.6-.6s.5,2.2,3,0,1.6-.5,1.8-.6c1.4-1,.9-6.7,0-8.3.7,0,1.7-.1,2.4,0s1.3.9,2.4,1.2c2.5.7,4-1.1,3.6,3.6.2.3,1.8-.6,2.4-.6h.6c0,2.1,1.4,3.6,3.6,3.6l1.2,1.2.6.6c.4.4.8.9,1.2,1.2l1.2,1.2c.2.2.4.5.6.6-.3,1.5.5,1.3,1.8,1.2h.6l1.2,1.8s-1.3,1.1-1.4,1.1c-1.5,1.6.7,1,1.2,1.4s1,3.8,3.7,3.4c.6,2.2-2.8.7-2.4,3,2.2.8,2.8-.8,3.2-1,1.8-.8,2.7,0,3.3-2.9l-2.3-.3c-.2-1.4,1.2-1.6,1.6-2.7s-.4-2.6-.4-3.2c0-1,.5-1.9.6-2.7s-.6-1.9-.6-2,1.1.2,1.6-.2.8-1.4,1.3-2,1.8-.7,1.8-.8c2.5-.2.8,1.8,0,3s-1.5.6-1.7,1.6.4,3.5,1.1,4.3c-.6,1.2-.7,3.4-1.3,4.9-1.3,3.1-3.5,6-4,9.3l-14-5.3c-1.8-2.6-2.6-5-4.4-7.7s-3.4-5.4-6.5-5.9c-.4,1.3.8,1.3,1.2,1.8v1.2c-1,0-.3-1.3-1.7-1.5s-2.2.2-2.5.9,0,.8,0,1.2c-.8,2.7-.2,3.2-3.6,4.1s-2-.4-2.4.3c1.6,1,3.2,2.2,4.7,3.3,1.3,1.6,2.1,3.2,1.8,5.3-.8-.7-2.5-2.9-2.7-2.9-2.2-1-.8,2.6-3.2,2.3-.4-.2-1.1-.6-1.2-.6-.6-1-3-1-3.6,0-.1,0-1,1.5-1.2,1.8-.6,1.3-1,.8,0,2.4s.4.4.6.6c-.1,2.2.7,2.4,2.4,3,3.3,1.2,3.7-.8,5.4-.4,1.7.4,4.8,4.7,6.5,5.4s1-.3,1.2-.3c2.2,2.6,2.3,4,5.9,5.9s.6.4,1.2.6.4,0,.6,0c1.1,1.7,4.7,3.6,6.5,4.1-1.9,1.3-4.6-1.2-6.2-1.3s-.8,1.3-1.2,1.3c-1.5,0-4.1-1.7-5.4-1.8s-2.3,1.4-3.5,1.2-.4-1.2-1.3-1.7-3-.8-3.4-.7,0,1.2-.4,1.6c-.5.6-3.4.1-2.8,1.6s2.6,4.1,4.7,2.7c-.8,4.6,6.2,7,8.3,9.8s.5,3.9,2.6,3.3.5-1.2,1.3-1.7,3.6-1.1,5-1.9c-.5,3.4.7,2,2.9,2.8,3.9,1.4,2.3.6,5.7.7s2.4,1.1,3.5,1.1c1.7,0,3.1-1.9,4.4-2.1s2.3.6,2.8.5c1-.2.7-2,1-2.2s1.5.1,2.1-.2.3-1.2,1.1-1.5,5.8-.8,6.1-1.3-1-2.6-.6-3,1.8.1,2.5-.1c2.3-.8,3.5-4.3,4-6.4.8-.2,1.6-.3,2.4-.6-.4,3.1-1.3,3.8,2,4.1s-.5,1.9-.6,2c-1,1.6.6,2.1-3.2,1-.9,2.1,1.2,2.5,1.2,2.7,0,.9-1.2,1.6-1.2,2.7-2.2-.6-2.5,2-3.4,2.4-3.4,1.4-12.7,5.4-15.6,5.9-19.7,4-31.6-8.5-44.5-20.1l-1.2-1.2c-.5-.4-.8-.8-1.2-1.2l-.6-.6c-.4-.4-.8-.8-1.2-1.2-3.1-5.3-8.2-8.9-12.5-13.3s-2.6-4-4.6-4.9-1.5,0-1.9-.1c-.8-.3-1-1.2-2.5-1.1s-3.7,1.7-5.2,2.3c1.5-3.6-2-1.9-1.1-5.3l5.9-1.8-1.2,3.5c.3.3,6.8-.2,7.1-.6.9-.9-1.4-1.5-1.9-2.5s-1.2-3.8-1-4c1-1.1,1.3,1.2,1.5,1.2,1.5.3,2.8-.1,2.4-1.9s-1.5-1.1-1.6-1.5c-.2-2.3,1.9-2.4,3.2-3.2s.7-1.6,1.4-1.7,1.5.7,2.6.2c1.9-.8,3.9-5.3,4.6-5.7,2.9-1.9,6.6,1.9,5.5-3.8s-.9-1.4-1.2-2.1c1.2.3,1.7,1.8,2.4,2.4l-.1-.2ZM244.3,241.1v.6c.4-.2.4-.4,0-.6ZM237.5,244.1c-.6-.6-1.8.5-1.2,1.2s1.8-.5,1.2-1.2Z"/>
  <path class="cls-15" d="M160.3,50.9c5.3.5,10.4,1.4,15.4,3,.8,2.8,5.8,2.8,8.3,3.6,7.1,2.3,13.8,6,19.6,10.7-1.9-.5-7.6-1-7.1,2.4-.1,0-3.5-1.3-2.7,0,1.6,1.2,3.1,2.2,5,2.4-.3,3.1,2.7,4.9,5.3,5.9l-1.2.6c-.1.6.6.5.6.6,1.6,3.5,3,2.9,5.3,4.7s4.4,3.6,6.5,5.3l-5.3-5.9c-.6-.8-2.2-2.5-3-3,2.1.5.8-2,1.2-2.4,1-.9,6.2,2.2,7.3,3s1.9,3.6,4.6,3c.8-.8-3.2-3-1.2-4.1,4.2,4.2,7.1,7.7,10.7,12.4.9,1.1.7,2.6,1.3,3.7s3.9,6.3,4.6,7.1,1.7.6,2.4,1v.6c-.2.1-1-.2-1.2,0-.2.3,1.9,4.9,2.4,5.9l-3-1.2c-.5,2.2,4.6,8.5.4,7.6s-1.1-1.2-1.6-1.7c-1.6-1.9-2.3-4.4-3.6-6.5s-2.9-5.7-4.7-7.7-2.1-1.3-4.1-2.1-3.2-3.6-3.6.9h-.6c-.7-.8-1.7-1.6-2.4-2.4-2.5-2.7-4.5-5-7.1-7.7s-2.3-2.4-3.6-3.6c-2.2-2.1-3.6-3.4-5.9-5.3s-3.1-3.2-5.3-4.7c-3.3-2.3-6.4-3.8-10.1-5.3,2.6-.9,2.1-1.5.6-3.6,5.3,1.4,5.6.3,1-2.4s-.4-1.2-.8-1.2c-6.6-.1-12.7-3.6-19.5-4.1s-3.7-.5-3.8.6c3.3.6,7.2.7,10.1,2.4,0,0-.6.7-1.4.6-1.2-.2-5.8-3.4-5.7,1.2-1.6-.4-3.3-.3-4.7-.6l-.3-.6-.3.6h-1.8c-.6,0-1-1-1.8-1.2-.9-1-3.4-.7-4.7-.6l-.3-2.4c3.7.8,8.2,1.3,11.6-.9-1.2-1.1-3.4.4-4.4.3s-.3-1.1-.7-1.2c-1.1-.3-3,0-4.3,0-.5-1.2,2.8-2,3.5-2.2,5.3-1.3,10,1,15.5.4,1.9-1.7-8.8-4.7-9.8-4.7-4.5-.2-10,.8-14.8.5s-2-1.8-5.6-.2-1.5,0-1.2,1.1c.9,1.8,7.8.9,7.1,5-3.2.2-5.1-.4-7.1,1.8-1.2,0-2.3-.6-2.4-.6l3-3.3c-.9-2.2-5-.2-5.3-1.8s2.9-1.6,1.8-3.8c1.8-.1,3.6,0,5.3,0s.5-.6.6-.6h.6c5.2,0,11.5.1,16.6.6l-.2.1ZM187.6,71c-.6-.6-1.8.5-1.2,1.2s1.8-.5,1.2-1.2Z"/>
  <path class="cls-15" d="M133.7,59.7c-.2,2.2.6.5,2,.6s3.2,1.4,4.5,0c3,.1,5.9.2,8.9,0,.2,3.6-3.8-.3-3.6,2.4h-1.8c-.6,0-.4-.5-.9-.5-1.3,0-4.6.3-3.9,1.7-.5,0-1.4-.1-1.8,0,.2-2-.6-1-1.6-.8-2.1.4-4.3,1.2-6.5,1.3s-2.4-.6-2.8-.5c-.9.2-1.2,3.8-2.4.5-1.1,2.7-5.2,1.8-7.4,3.9,2.7.7,4.6-1.9,5.9,1.8s-4.8,1.8-5.3,3.2c-1.5.5-2.8,1-4.2,1.8h-.6c.2-1.9-2-4.9-3.6-5.6s-4.1,0-3.5-2.3,3-.9,4.1-.9l-.6,2.4c6,.1,2.2-3.1,3-4.1s3.3-.5,3.6-.6-.3-1,.4-1.2,2.2.2,2.6,0-.1-2.6,2.4-.6c-.5.1-2.3.5-2.4.6s.1.8-.1,1.1-2.2-.3-2.8.1c-.1,1.1,1.3.6,2,.5,2.3-.2,8.6-1.2,10.6-1.8s1.4-1.3,1-1.7-5.5,1-6.5,1.2c.3-3,5.7-1.6,8-1.8s2.2-.6,3.3-.6v-.1Z"/>
  <path class="cls-11" d="M417.8,190.1c-14,11.4-38,18.8-55.2,24.3.2-1.9-.6-1-1.7-.8-4.8.8-6.1,2-9.6,4.9s-4.5,3.7-5.4,4.6-2.8,6.2-3.5,7.9c-.2-.1-.4-.5-.6-.6.5-2.8.8-6,2.4-8.5s5.9-3.5,6.8-5.1-2.4-2-3.6-1.8-3,2.5-5.5,2.8-4.6-.6-8.1.7-3.6,2.7-4.5,2.1,0-1.7-3-2.1c0-.4.1-.9,0-1.2,3-3.1,6-3.9,10.3-4.2l-.2-2.4c6.9,1.3,14.2-1.2,20.2-4.7,2.6,0,4.6-1.7,6.7-3s1.7-1.1,2.8-1.8v6c0,1.2-.5.4-.5.9,0,1,.7,2.2.5,3.3,2.9.5,5.6-1.7,7.7-2.4,9.3-3,17.5-5.6,26.1-10.7s1.6,0,1.8-1.2c.5,0,1.4.1,1.8,0,2.4-.6,7.7-5.3,10.4-6.5s2.4-.8,3.8-.7l.1.2Z"/>
  <path class="cls-11" d="M368.6,193.7c12.1-7.6,26.9-14.7,39.9-18s7.1-2.8,10.1-2.1,1.5.3,1.6.4c.2,0,1.3.2,3.4,1.3,4.6,2.4,2.7,4.8.4,8.4s-2,2.3-3.2,3.6l-.4-.5c-1.9-.9-2.8,1.7-4,1.7s-.6-1.1-.9-1.2c1.9-2.9-1.1-2.9-1.8-3.6-1.3-1.3.3-1.6-3-2.4l.3-2.4c-2.5.5-5.4,1-7.7,1.8-10.9,3.6-22.4,9.5-32.3,15.4.5-1.8-1.9-.8-2.4-2.4Z"/>
  <path class="cls-9" d="M316.9,210.3c0,1.6.7,2.5,1.8,3.6.1,1.2.4,1.2.6,1.8,1.6,5.1,4.6,11,6.7,16.2s.2,1.9,1.6,1.6c-1.2,2.8,1,3.2,1.8,4.7s1.1,1.7,1.2,1.8c.2.4-.4,2.6.9,3s3.7-1.2,3.2-2.4c1,0,2.6.1,3.6,0l.6,1.2c-10.8,7.4-18.8,9.3-30.3,14.2,0-.6-.8-.7-1.2-.6v-.6c-.5-2-1.5-4.1-2.4-5.9l2.7,2.4c.7-2.4-1.8-4.7-2.7-6.8-2.2-5.3-3.9-11-5.9-16.3-.5-.2-1.1,2.1-1.2,2.4,0-.3-.3-.6-.6-.6,0-1.4-.1-2.8-.6-4.1-.4-1.5.9-1.6,1.7-1.1s2.4,6.2,4.3,7c1.2,3.3,2.4,5.9,3.7,9.1s2.6,9.1,4.1,11.4,1.5.5,2.3.9c0-.6,0-1.3-.1-2-1.2-4.4-4.9-10.9-6.7-15.2s-3.2-10.7-6.2-15.4c-.2-1.3-.2-2.2-.6-3.6.5.7,1.3,1.6,1.8,2.4,2.8,4.9,5.6,10.7,7.7,16s1.2,4.1,1.9,6.1.2,1.9,1.6,1.6c0,.7-.6,1.5-.6,1.8,0,1.1.7,1.6,1.2,2.4s1.4,2.4,1.8,2.7,3.9.2,4.3.2,8-3.8,8.4-4.1c1-.7.7-1.3.9-1.7s.8-.3,1.1-1c.8-2.1-.9-1.8-1.7-3.4-4.1-8.3-7.1-17.3-11.8-25.2v-1.2c0-.6.5-2.4,0-3.6l1.2.6-.1-.3Z"/>
  <path class="cls-2" d="M322.3,211.5c.4,1,1.4,1.7,1.8,2.4l.6,1.2v1.2c0,.6-.1,2.2,0,2.4s1.3,0,1.8,0c.1.4-.2,1.1.1,1.6.6.9,3.9,2.2,3.4,4.9,1.6.4,1.6-1.9,2.8-2.3,2.6-.9,5.8,1.2,8.5-.1,1.3,2.5-1.1,5.2-.6,7.3s.9.2,1.2.4.4.5.6.6c0,.2-.5.4-.6.6-.8,2.6-.7,5.4-1.2,8.3-.9-.2-1.8.5-2.4.6-1,.1-2.5,0-3.6,0s-2.7-1.2-4.2-.6c0-.1-.5-.4-1.2-1.8,1,.4,1.7.6,2.8.2,3.1-1.3,5.5-9.6.5-9.6s-2.5,2.2-3.4,3.4-1,0-1,.1c-1.4-1.6,1.2-2.4.3-4.2s-2.8-1.4-3.6-2.4c-1.4-1.6-1.6-4.6-2.4-6.5s-2.2-3.8-3.2-3.6c-.2-.6-.5-.6-.6-1.8s0-1.7,0-1.8c.1-.1,2.9-.5,3.6-.6v.1Z"/>
  <path class="cls-7" d="M203.7,68c3.8,1.1,12.3,9.4,15.4,12.4-2.1,1.2,2,3.4,1.2,4.1-2.7.6-3.4-2.1-4.6-3s-6.2-3.9-7.3-3,.9,2.9-1.2,2.4c-.8-.5-2.5-1.2-3.6-1.2,0,0-.7,0-.6-.6l1.2-.6c-2.6-1-5.6-2.8-5.3-5.9s1-.8.6-1.2-2.5-1-3-1.2c-.5-3.4,5.2-2.9,7.1-2.4l.1.2Z"/>
  <path class="cls-15" d="M259.4,218c5.7-1.9,9.4-3.4,15.7-3s8.1.7,6.2,3l-14.4,4.9-1,2.9h-1.2c-3.5-.3-1.8-1.7-2.6-3-1.9-2.9-9.8,5.3-11,4.2.5-3.8,4.7-3.1,4.7-7.1v-.6c1.1-.4,2.4-.8,3.6-1.2v-.1Z"/>
  <path class="cls-1" d="M238.1,105.4c1.8,2,3,4.5,4.1,6.9,14,30.1,12.5,63.4-2.8,91.3-1.6,2.9-3.8,6.9-6,9.1s-1.5,1.8-1.6,1.8c-1,.1-3-1.1-4.4-.6.8-2.7,3.3-5.1,4.2-7.7,2.5-1.7,2.4-4,3.3-6.5s1.2-1,1.4-1.6c.2-.9-.7-1.8-.5-3.7s.4-1.6.6-2.4c3.3,1.7,5.5,4.6,7.5-.5s1.5-5.9,2.1-8.6,2.4-2.8,2.8-4.9-.4-4,.7-5.9l-1.2-.3v-.6c2.2,0,1-5.8,1.2-8,1.3-15.1.7-31.5-7.1-44.7s-2.1-5-3-7.2-2.6-5.7-2.4-5.9,1,.1,1.2,0h-.1Z"/>
  <path class="cls-5" d="M368.6,193.7c.4,1.6,2.9.6,2.4,2.4-4.9,2.9-9.6,7.3-14.2,10.1s-13.2,6-20.2,4.7-7.8-2-8.3-5.3h1.2c1.8.5,3.5,1.5,5.1,1.7s10.5.6,11.1.5c6.6-1.4,16.9-10.3,23-14.1h-.1Z"/>
  <path class="cls-9" d="M326.4,203.2c.4,1.8,0,2.1,1.8,2.4.6,3.3,5.3,4.8,8.3,5.3l.2,2.4c-4.3.2-7.3,1.1-10.3,4.2,0-.2-1.4-.8-1.8-1.2v-1.2c-.1-.8-.4-.8-.6-1.2-.3-.7-1.3-1.4-1.8-2.4-1.1-2.2-.3-5.7-4.2-5.9s-1.9-.3-3.6-.6c-.3-1.5.7-1.2,1.6-1.6,3.9-1.6,6.4-2.1,10.3-.2h.1Z"/>
  <path class="cls-3" d="M284.3,267.2c-2.5,1.8-5.9,6-7.7,8.9-1.9,1.1-1.1.9-2.4,2.4-2.4,2.8-4.2,3.9-7.1,5.9h-.6c0-1.1,1.2-1.7,1.2-2.7s-2.1-.6-1.2-2.7c3.8,1.1,2.2.6,3.2-1s2.5-1.8.6-2c-3.3-.4-2.4-1-2-4.1,3.2-1,6-3.3,8.3-4.7s1.3-.2,2-.7c2.5-1.7,5.2-5.7,5.7.7h0Z"/>
  <path class="cls-9" d="M314,204.9c-.5.7-.7,4.1-.6,4.7-1.1,0-2,.7-3,1.2s-.4.5-.6.6c-.5.2-1.1.3-1.8.6-1.1.4-7.5,3-8,3s-.6-1.5-1.2-1.8l-.9,2.4c-2.6-.6-4-1.4-4.2,1.8h-3.6c-1.4.1-2.8.3-4.2.6-.2-.1-.5-.6-.6-.6,1.9-.7,4.7-.8,6.4-1.6s1.1-1.7,1.9-2.2c2.1-1.4,18.4-8.5,20.2-8.6l.2-.1Z"/>
  <path class="cls-1" d="M255.9,219.2v.6c-2.8.4-3.6,3.1-5.3,5.1s-2.3,1.5-2.7,2.1c-.5.9-.2,2.1-.3,2.3s-1.2.2-1.8.8-1,1.7-1.3,2-1.5,0-1.6.2.6,1.2.6,2-.5,1.7-.6,2.7c-2.2,2.2-5.2.8-6.5,1.2l-1.2-1.8c3,0,7.3-7.6,9.5-9.8,3.2-3.1,7.4-6,11.3-7.4h-.1ZM244,231.6l-1.2-1.2c-.2,1.2,0,1.3,1.2,1.2Z"/>
  <path class="cls-15" d="M118.2,53.8c-1.7.1-4,3.3-4.3,3.5-.4.2-2-.6-3.1-.5s-4.6,1.6-2.6,2.9,5.2-.3,3.5,1.3-4.5.1-5.7.5-.8,1.3-1.7,1.3c-1.8,0-3-1.5-4.1-1.2s-1.3,1.9-2,2.4-2.2-.3-3.3,0c-1.1.3-3.4,3.9-5.8,3.5l.6,1.2c-1.5-.1-2.8.2-4.2.6-1.6,3.4-2.3,2-4.7,3.6,1-2.3,2.7-3,4.7-3.6,0-.2-.2-.7.1-1.1.4-.5,10-6,11.4-6.7,6.2-3.2,14.3-6.2,21.2-7.6v-.1Z"/>
  <path class="cls-6" d="M70.2,81.1c.4,2-2.2,3-3.2,4.2-14.1,17.4-25.9,42.4-27.7,65.4,0,1.1.7,2.4-1.2,2.1,1.4-24.4,14.2-54.9,32-71.7h.1Z"/>
  <path class="cls-10" d="M169.8,252.4c-15.5,7.3-33.3,7.8-49.8,4.1,10.2.9,19.7,1.4,29.8.3s13.7-2.3,20-4.5v.1Z"/>
  <path class="cls-1" d="M259.4,218c-.4-1.6.9-1.1,1.8-1.5,3.2-1.2,7.3-2.5,10-3.2s6-1.2,8.3-.2.3,3.2,6.1,4.3.4.5.6.6c-2.8.7-5.9,2.6-8.3,3.6s-6.1,1.8-8.9,3-.4.4-.6.6c-.5.2-1.8.6-2.4.6l1-2.9,14.4-4.9c1.9-2.3-4.9-2.9-6.2-3-6.3-.5-10,1.1-15.7,3h-.1Z"/>
  <path class="cls-5" d="M420.8,187.2c-1.1,1.2-1.6,1.9-3,3-1.4-.2-2.5,0-3.8.7-2.8,1.2-8,5.8-10.4,6.5-.6-4.1,1.1-2.8,2.9-3.9s2.6-1.3,4.8-2.4,2.4-4.3,4.2-3.8.6,1.2.9,1.2c1.3,0,2.2-2.6,4-1.7l.4.5v-.1Z"/>
  <path class="cls-6" d="M226.2,222.7v-4.7c-1.7-.2-2.5,1.7-3.4,2.3s-1.1-.1-1.3,0l5.9-6.5c1.3-.5,3.4.8,4.4.6s1.1-1.3,1.6-1.8c-2,3-4.6,7.6-7.1,10.1h-.1Z"/>
  <path class="cls-3" d="M221.4,220.4c.2-.1,1,.2,1.3,0,.9-.6,1.7-2.6,3.4-2.3v4.7l-.6.6c-.2.2-.8-.3-1.2.4s-.5,2.3-.5,3.2c-.6,0-2.1.8-2.4.6.4-4.6-1-2.9-3.6-3.6l.6-.6c1-.7,1.2-1.2,1.8-1.8s.3-.7,1.2-1.2h0Z"/>
  <path class="cls-1" d="M179.9,250c.4.1,1.3-.2,1.9.1,2,.9,3.1,3.4,4.6,4.9,4.3,4.4,9.4,8,12.5,13.3-1.2-1.1-2.7-1.8-3.9-2.9-5.2-4.9-10.2-10.2-15.1-15.4Z"/>
  <path class="cls-1" d="M289.7,265.4h.6c-4.6,2.7-9.5,8.3-13.6,10.7-.6.9-.4,1.7-2.4,2.4,1.3-1.5.4-1.3,2.4-2.4,1.8-2.9,5.2-7.1,7.7-8.9s4.2-1.9,5.3-1.8h0Z"/>
  <path class="cls-11" d="M318.1,205.5c-.2,1.1-1.1,3.9-1.2,4.7l-1.2-.6c.5,1.2,0,2.9,0,3.6-.6-.3-2.3-3.2-2.4-3.6-.1-.6,0-4,.6-4.7h.6c1.6.3,1.5.5,3.6.6ZM315.8,209.1c.7-.7-.3-1.9-1.2-.3,0,.5,1.1.3,1.2.3Z"/>
  <path class="cls-10" d="M302.1,258.9c.1,0,.4.5.6.6-3.7,1.8-9.2,4-12.5,5.9h-.6c-.2-1.1,2-2.4,3-3,1.8-1.1,7.6-3.7,9.5-3.6v.1Z"/>
  <path class="cls-15" d="M54.2,209.1c.9,0,5.1,3.4,5.2,3.7.4,1,0,2.1.3,2.7s4.1,1.1,5,1.9c.9.8,1.5,4,1.5,5.3-4.3-4.4-8.2-8.2-11.9-13.6h-.1Z"/>
  <path class="cls-1" d="M266.5,284.4h.6c-5.7,4-12.3,8.2-19.6,8.3,2.8-.6,12.1-4.5,15.6-5.9s1.2-3,3.4-2.4Z"/>
  <path class="cls-6" d="M238.1,104.8c-.7-.4-1.8-.3-2.4-1s-4.1-6-4.6-7.1-.3-2.6-1.3-3.7c1.6,2,8,9.9,8.3,11.9v-.1Z"/>
  <path class="cls-4" d="M160.3,50.9c-5.1-.5-11.4-.7-16.6-.6,5.2-1.2,11.5-.9,16.6.6Z"/>
  <path class="cls-9" d="M351.4,218.6c3.5-2.9,4.8-4.1,9.6-4.9s1.9-1.1,1.7.8c-4,1.3-7.5,2-11.3,4.1h0Z"/>
  <path class="cls-4" d="M308.6,255.9c-1.1.5-4.1,2.7-5.9,3.6-.2-.1-.5-.6-.6-.6-.2-.9.5-1.4,1.2-1.8s1.2,0,1.8-.3c.9-.4,1.6-1.2,2.4-1.5s1.3,0,1.2.6h-.1Z"/>
  <path class="cls-15" d="M130.7,51.4c-2.6,1.8-6.5,1.3-9.5,1.8,2.8-1.5,6.4-1.4,9.5-1.8Z"/>
  <path class="cls-6" d="M184.1,57.4c-2.5-.8-7.5-.8-8.3-3.6,2.7.8,5.9,2,8.3,3.6Z"/>
  <path class="cls-5" d="M340.7,241.1v-1.2c.5-2.9.4-5.7,1.2-8.3-.5,2.7,1.2,7.9-1.2,9.5Z"/>
  <path class="cls-3" d="M228,230.4c-2.2,0-3.6-1.5-3.6-3.6,1.3.3,2.6,2.7,3.6,3.6Z"/>
  <path class="cls-11" d="M340.7,239.9v1.2c-.6.4-1.5.4-1.8.6l-.6-1.2c.6,0,1.5-.8,2.4-.6Z"/>
  <path class="cls-11" d="M329.4,205.5h-1.2c-1.7-.2-1.3-.5-1.8-2.4,1.1.5,2.3,1.4,3,2.4Z"/>
  <path class="cls-6" d="M225.6,223.3c-.3,1.4-1.2,2-1.2,3.6h-.6c0-.9,0-2.4.5-3.2s1.1-.3,1.2-.4h.1Z"/>
  <path class="cls-3" d="M234.5,236.4c-1.3.1-2.1.3-1.8-1.2.1,0,.7,0,1.2.3s.5.8.6.9Z"/>
  <path class="cls-15" d="M120.6,53.2l-1.8.6s.8-.4,1.8-.6Z"/>
  <path class="cls-15" d="M132.5,50.9c-.1,0-.6.5-1.2.6l1.2-.6Z"/>
  <path class="cls-1" d="M79.7,236.4c-2.1-1.8-4.3-3.6-5.9-5.9,2.1,1.9,4.3,3.6,5.9,5.9Z"/>
  <path class="cls-3" d="M229.8,232.2l-.6-.6.6.6Z"/>
  <path class="cls-3" d="M232.1,234.6l-1.2-1.2,1.2,1.2Z"/>
  <path class="cls-10" d="M171.6,251.8c0-.3.5-.5.6-.6,0,0-.2.5-.6.6Z"/>
  <path class="cls-10" d="M170.4,252.4l.6-.6s-.2.4-.6.6Z"/>
  <path class="cls-4" d="M142.6,50.9l.6-.6c-.1,0-.4.6-.6.6Z"/>
  <path class="cls-1" d="M200.7,270.1c-.2-.2-.4-.4-.6-.6l.6.6Z"/>
  <path class="cls-1" d="M203.1,272.5c-.5-.4-.8-.9-1.2-1.2l1.2,1.2Z"/>
  <path class="cls-1" d="M83.2,101.8c-1.6,0-2,3.1-2.6,4-1.9,2.8-3.5,3.5-4.5,7.3-2.5,0-1.6,3.2-2.4,4.7l-.6-2.4c-1.6.3-.9,2.1-1.2,3-3.1-.7-2.2,3.3-3,4.1s-.8-.5-1.8,2.4-.8,3-1.2,4.7c-.4,1.7-1.5,2.9-1.2,4.7h1.8l.9-3c1.3,1.1.9,2.7.9,4.1s0,.4,0,.6c-.4,0-.5.6-.6.6-.3,0-.8-.2-1.1,0s-.9,4.4-2.2,4.7-2.8-2-3.7-.5-1,10.8-1.3,12.9h-1.8c.4-3.8-.8-8.3.6-11.9v4.2c0,.8-.2,7.1.3,7.1.2-2.4.7-4.8.9-7.1s.6-4.7.6-6.5c.8-5,2.3-9.3,4-14,1.7-4.7,2.1-5.6,3.1-7.9s3-3.1,3.6-3.9c1.6-2.1,1.4-3.7,4.1-6.7,3.4-.2,2.4-.4,3-2.4s1.9-3.9,2.4-4.7c1.1-2,3.1-3.7,4.7-5.3-.3,2.5-2.3,4.3-1.8,7.1l.1.1Z"/>
  <path class="cls-14" d="M86.8,84.6c1.7-.9,2.5-3.1,4.9-2.9s1.9,1,2.5.9,4.4-3.4,6.2-1.9c-1.1,1.5-2.7,2.2-4.1,3.3s-3.1.9-2.4,3.6c-.7,1.6-2.6,1.5-3.9,2.4s-3.2,3-4.4,4.2-.4.4-.6.6c-1.7,1.7-3.7,3.3-4.7,5.3-2-.2-3,3-3.7,3.4s-1.6,0-2.2.1v-.6c.1-.2.4-.4.6-.6.8-1.3,1-1.4,1.2-3,2,.2,2.4-.5,2.4-2.4s-1.4-1.2-1.7-2.1c-.8-2.3,1.3-2.3,2-3.2s.2-1,.3-1.2c2.7-.2,4.2-3.9,6.5-5.3.4-.2.8-.4,1.2-.6h-.1Z"/>
  <path class="cls-15" d="M105.8,85.8v.6c-4.5.8-12.5,10.7-16.6,13.6s-2.7,2.1-3.4,2.3c-1.4.4-2.2-.5-2.5-.5-.5-2.8,1.5-4.6,1.8-7.1l.6-.6c3.1-1.8,4.9-4.4,8.9-4.7.4-1-.5-1.5-.6-1.8-.7-2.6.5-2.1,2.4-3.6-.5.6-.9,3.9.9,3.6,2.9-.6,5.7-1.2,8.6-1.8h-.1Z"/>
  <path class="cls-15" d="M159.2,229.8c-.8-.7-1.6-.5-2.3-.9s-.5-1.2-.7-1.3-3.3.7-4.6-.4-.4-1.5-.7-1.9-1.2,0-1.7-.5c-1.1-1.4-.3-4,1.5-4.4s1.9,1.1,2.4,1.2c1.4.3.6-1.1,1.3-1.2,1.4-.3,5.8,2.2,7.9.6,2.2.8,1.8,1,3.3,1.8s6.8,3,5.6,4.7c-.9.7-5.4-.4-5.8-.7s-.2-2.4-1.7-2.8-4.2,2.1-6.1,1.1c-.6,2,2.4,1.3,2.9,1.9s1.1,5,0,5.2c-.1-.7-.6-1.9-1.2-2.4h-.1Z"/>
  <path class="cls-3" d="M205.4,210.9c.8.7,1.6,2.2,2.4,3l1.2,1.2,1.8,1.8c-2.1.7-3.9,2.9-5.9,3,0-.1-.8-.2-1.2-.6s-.4-.4-.6-.6l-.6-.6-.6-.6-1.2-1.2c-2.8-3-1.3-1.5-2.4-4.7.7.4,2.6.7,3.5.9-.9-1.3-1.8-2.3-2.4-3.9s.1-1.3,0-1.8c1.8,1.2,4.4,2.8,5.9,4.1h.1ZM206.6,216.3c0-.1-2.1-.9-2.3-.7-.3,3.4,3.7,2.9,2.3.7Z"/>
  <path class="cls-3" d="M175.8,203.8c.5,0,1.4.8,2.6.6s.9-3,5.3-1.2-.1.7,2.8,1.1c0,2.5,2.7.9,1.8,0h-1.8c0-1.9,2.7-2.1,3-1.8s.2,3.9,2.4,5,2.1-.3,3.6-.9l.9,1.2.3-.6c0,.1.5.6.6.6-.4.3-.5,1.7-.6,1.8s-1.1-.7-1.2-.6c-.3,1.8,1.4,2.7-.6,3.3v.8h-1.4c-.8-2-.9-.6-1.6-.6h-3c-.9-3.6-.6-1.7-2.1-1.8s-.8-.5-.8-.5c.2-2.2-3.7-1.9-4.9-2.4s-2-1.5-2.3-1.8.4-1.9-2.4-1.2l.6,1.2c-.5-.1-1.2-.8-2-.6s-.9,1.7-1.6,2.3v-.6c-.6-2.5-2.3-1.6-2.4-3.6,1.3.3,1.8,0,2.4,0,1.4.2,1.5,0,2.4,0v.3Z"/>
  <path class="cls-3" d="M198.3,211.5c-.4-.2-.5-1.1-.6-1.2.5.6.4.6.6,1.2Z"/>
  <path class="cls-3" d="M197.7,210.3c-.2-.1-1.3.3-1.2-.6,1.1-.3,1,.4,1.2.6Z"/>
  <path class="cls-15" d="M177,206.1c.5.1,1.6-.1,1.8,0s0,1.1.9,1.7,4.7,2,6.2,2.4.2.5.8.5c1.5.2,1.2-1.8,2.1,1.8-4.1-.2-2.6-1.2-4.4-1.8s-7.4-.7-7.9.2.3,2.6-.6,3.2-2.8,0-3.6.5.6,3.4-2.3,2.7c-1.5-1.8-.6-1-1.6-3.4s-3.1-2.9-2.5-3.7c1.6-.5,3-.7,4.7-.6s1.9,1.2,3,.6v-2.4c.7-.6.7-2,1.6-2.3s1.5.4,2,.6h-.2Z"/>
  <path class="cls-1" d="M112.3,82.3l-2.4,2.1c.3.5,1.9-.1,2.4-.3l-.6,5.3h3.6c-2.6,1.2-8,3.7-10.1,5.3s-.5.3-.6.6v.6h-.6c-2.8,0-3.4,1.7-5.3,3s-.4.4-.6.6l-.6.6c-.3.2-1.2.2-1.8.6h-2.4l.6-1.8c.2-.1.4-.5.6-.6,1-.5,2-.4,1.8-1.8.2-.1.3-.4.6-.6s.4-.5.6-.6.5,0,.6,0c.7-.4,1.1-1.1,1.2-1.2.3-.2.7-.3,1.2-.6,2-1.2,1-1,1.8-1.8s.4,0,.6,0c1-.5,5-1.5,5.2-2.7s-.4-.3-.5-.3v-1.2l1.8-2.4c-1-.3-1.7.5-2.4.6.2-2,1.4-1.4,2.2-2s.5-1.1.8-1.3c1-.6,1.7-.2,2.3-.3v.2Z"/>
  <path class="cls-14" d="M196.5,216.2c1.8-.8,1.8,1.2,2.1,1.2s.3-1.9,2.1-1.2l1.2,1.2.6.6.6.6.6.6c.4.4,1.1.5,1.2.6,1,1.1,1.6,2.9,3,3.9-.3.7-1.8,0-2.4-.3s-.8-1.4-1.6-1.7-2.4-.5-2,.8,2.9,1.5,3.6,2.1,0,.7.2,1c1.9,1.8,5,3.4,5.8,6.1-2.4,2.2-1.5.5-3,0-2.1-1.6-3.5-3.9-5.3-5.6s-1.8-1-2.4-1.5-1.2-2-2.4-2.4c-.2-.4-.4-.8-.6-1.2-.3-.6-.5-1.4-1.2-1.8v-.6c-.2-1.1-1.1-1.1,0-2.4h-.1Z"/>
  <path class="cls-3" d="M160.3,218l-3.6.9c1.5,1.3,3.5,1.4,5.3,2.1-2.1,1.6-6.5-1-7.9-.6s.1,1.5-1.3,1.2.2-1.8-2.4-1.2-2.7,3-1.5,4.4,1.4.2,1.7.5.2,1.5.7,1.9c1.4,1.1,4.4.3,4.6.4s.3,1.1.7,1.3c.7.4,1.5.3,2.3.9-2.2.1-5.1.6-7.1,1.2-2,.5-7.4-4.1-6.5-5.3s1.2,0,1.6-1c.8-1.9-.2-5.5,2.8-6.1s8.5-.9,10.4-.6h.2Z"/>
  <path class="cls-1" d="M168.7,208.5c.3,0,1,.4,1.8.6v.6c-1.7-.1-3.1,0-4.7.6-.6.8,2.1,2.7,2.5,3.7,1,2.4.2,1.6,1.6,3.4s1.3,2.2,1.8,3,.5,1.1.6,1.8h-.6c-.9-.5-2.1-1.4-3-1.8s-.7-.4-1.8-.6l-3.6-3.9c.5-.7,1.9.2,2.4-.9,1-2.4-2.1-2-2.4-2.4s2.6-2.2,0-3c-.7,3.4-1.1.1-1.2,0l.6-1.8c2-.5,4,.2,5.9.6l.1.1Z"/>
  <path class="cls-1" d="M168.7,220.4v1.2c-.8-.3-1.9-.2-2.4-1.2.6.1,2.1-.2,2.4,0Z"/>
  <path class="cls-5" d="M80.3,100c-.4.8-2.2,4.1-2.4,4.7-2.6-.5-2.4,1.7-3,2.4-2.7,3-2.5,4.6-4.1,6.7s-2.2.8-3.6,3.9h-1.2c.5-1.1,1-2.3,1.2-3.6.8-1.4,1.6-2.8,2.4-4.1,2.1-.4,3.7-6.1,4.2-6.5s.4,0,.6,0c.7-.1,1.6.3,2.2-.1s1.7-3.6,3.7-3.4Z"/>
  <path class="cls-1" d="M96.3,84c1.4-1.1,3-1.8,4.1-3.3-1.8-1.6-5.7,1.8-6.2,1.9s-1.7-.8-2.5-.9c-2.4-.2-3.2,2-4.9,2.9l3-3.8,7.7-2.1c.3-.8-2.4-.5-1.2-1.8s6.6,0,5.7,3.6-5.1,2.8-5.7,3.5Z"/>
  <path class="cls-2" d="M67.2,117.8c-1,2.3-2.2,5.5-3.1,7.9-1.7,4.7-3.2,9-4,14,0-.2-.5-1.7-.6-3s0-1.1,0-1.8c.8-1.5.8-3.2,1.2-4.7s0-.4,0-.6l.6-1.2c.4-1.2.8-3.2,1.2-4.1.7-1.7,2.7-4.6,3.6-6.5h1.2-.1Z"/>
  <path class="cls-14" d="M159.2,229.8c.5.4,1.1,1.6,1.2,2.4-2.6.2-5.1,1.6-7.6,2.2s-2.3,0-3.1.1v-.6c-.4-2.5.2-2.4,2.4-3s5-1,7.1-1.2v.1Z"/>
  <path class="cls-1" d="M128.3,72.2c.2.2,0,1.5,1.2,1.8-3.6.3-3.5,2.2-5.3,3.6-2.8,2.1-6.9,1.7-9.5,4.1-.7.1-1.3.5-1.8.6l2.8-2.8c2.3-.7,4.6-2.2,6.7-3.1s2.2,1.2,1.8-2.4c-1.7-.4-2.8.2-4.2.6s-6.8,1.6-7.1,1.8l-.6-.6v-.6h.6c2.8,1.2,6.3-1.6,9.3-2.2s4.1.1,6.1-.7v-.1Z"/>
  <path class="cls-10" d="M149.7,234v.6c-8.4,1.7-12,2.6-20.8.6,6.9,0,14,.4,20.8-1.2h0Z"/>
  <path class="cls-3" d="M59.5,158.7c-.4,3.6,2.5,6.3,1.8,10.1-3.5-.4-3.3-6.6-3-9.2s-.2-1,1.2-.9h0Z"/>
  <path class="cls-3" d="M76.1,96.5c0,1,.1,2,0,3-.2,1.6-.3,1.7-1.2,3-.3-1.6-3.2-1.4-2.9-2.6.6-2.5,1.7-3.3,4.1-3.3v-.1Z"/>
  <path class="cls-1" d="M122.4,62.1c1-.2,6.3-1.4,6.5-1.2.4.4-.3,1.4-1,1.7-2,.7-8.3,1.6-10.6,1.8s-2.1.6-2-.5c.7-.5,2.6,0,2.8-.1.3-.3,0-1,.1-1.1s1.9-.5,2.4-.6,1.2.1,1.8,0Z"/>
  <path class="cls-14" d="M194.2,213.2h3.6c.2.1-.6,1-.6,1.2-1.6-.5-3.6-.8-2.8,1.7s2.7.3-.8,1.3c-1.7-1.4-.9-2.3-1.8-4.1,1,.8,2,0,2.4,0v-.1Z"/>
  <path class="cls-6" d="M66,157.5c.3-3.1-.4-6.8,0-9.8s.6-1.3.6-1.4c.6,1.3.5,4.2.4,5.6s-.3,3.7-1,5.6h0Z"/>
  <path class="cls-3" d="M85.6,85.2c-2.3,1.4-3.8,5.1-6.5,5.3.6-.8,3-4.3,3.8-4.8,1.3-.8,2.2-.3,2.7-.6v.1Z"/>
  <path class="cls-15" d="M63.1,112.5c0-.9.1-1.9.6-2.6,2.4-3.3,5.2,2.8-.6,2.6Z"/>
  <path class="cls-1" d="M197.1,214.4c0,.1.8.6.6,1.1s-.8.4-1.1.7c-1.1,1.3-.2,1.3,0,2.4-1.2-.2-2-.4-3-1.2,3.4-1,.8-1.2.8-1.3-.8-2.5,1.2-2.1,2.8-1.7h-.1Z"/>
  <path class="cls-5" d="M60.1,139.8c0,1.8-.4,4.5-.6,6.5h-1.2v-2.4c.9-.4.6-1.6.6-2.4,0-1.4-.6-3.6.6-4.7,0,1.3.6,2.8.6,3h0Z"/>
  <path class="cls-14" d="M95.7,215.6h.6v1.2c1.1.3,2.7,1.4,2.8,2.8s-.5.7-.5.8c-1.4-.1-2.5-1-3.6-1.8,1-.6,1.1-.7,1.2-1.8-.6-.2-3,.3-1.8-1.2s.8,0,1.2,0h.1Z"/>
  <path class="cls-15" d="M120,74.6c1.3-.4,2.4-1,4.2-.6.4,3.5-.6,1.9-1.8,2.4,0,0-2.4-1.8-2.4-1.8Z"/>
  <path class="cls-4" d="M78.5,97.1c0,1.9-.4,2.5-2.4,2.4.1-.9,0-2,0-3,.8,0,1.6.1,2.4.6Z"/>
  <path class="cls-3" d="M147.3,58.6h5.4c1.3,0,3.2-.3,4.3,0s.4,1.2.7,1.2c1,0,3.2-1.4,4.4-.3-3.3,2.2-7.9,1.7-11.6.9l.3,2.4c-.5,0-1,0-1.2.6h-1.2c-.5-1-2-.5-3-.6-.2-2.7,3.7,1.2,3.6-2.4-3,.2-5.9.1-8.9,0,2-2.2,3.9-1.6,7.1-1.8h.1Z"/>
  <path class="cls-3" d="M137.8,59.7c.1,0,1.2.5,2.4.6-1.3,1.4-3.1.2-4.5,0s-2.2,1.5-2-.6h4.2-.1Z"/>
  <path class="cls-12" d="M114.7,81.7h.6v.6c-.7.2-2.1,1.4-3,1.8s-2.1.8-2.4.3l2.4-2.1h.6c.5-.1,1.1-.5,1.8-.6Z"/>
  <path class="cls-3" d="M173.4,223.9l.8.6.4-.6c.1.2,2.6,2.8.3,3s-1.2-2.4-2.6-2.5c-.2-.3.5-.4.5-.5h.6Z"/>
  <path class="cls-12" d="M107,85.8c.7-.1,1.4-.9,2.4-.6l-1.8,2.4c-.4-.8-.8-1.4-1.8-1.2v-.6c.4,0,.8,0,1.2,0Z"/>
  <path class="cls-6" d="M59.5,135c0-.1-.6-.5-.4-1.7s.4-2.6,1.6-3c-.4,1.6-.4,3.3-1.2,4.7Z"/>
  <path class="cls-15" d="M112.3,75.7l.6.6c-.1,0-.4,2.5-1.8,1.2s1.1-1.7,1.2-1.8Z"/>
  <path class="cls-15" d="M171.6,220.4c2.8-.4,1.3.7,1.8,1.8h-1.2c0-.6-.3-1.2-.6-1.8h0Z"/>
  <path class="cls-1" d="M66,117.8c-.9,1.9-2.9,4.8-3.6,6.5.8-3.7,2.9-6.8,4.7-10.1-.2,1.3-.7,2.4-1.2,3.6h.1Z"/>
  <path class="cls-1" d="M174.6,223.9l-.4.6-.8-.6-.6-.6v-1.2h.6c.2.6.8,1.2,1.2,1.8Z"/>
  <path class="cls-4" d="M171.6,222.1s-.3.6-.8.5-1.5-.8-2.2-1.1v-1.2c.9.4,2.1,1.3,3,1.8Z"/>
  <path class="cls-4" d="M168.7,220.4c-.2-.2-1.8.1-2.4,0v-.6h.6c1.1.2,1,.3,1.8.6h0Z"/>
  <path class="cls-10" d="M67.8,139.2v-2.4s.2-.6.6-.6c0,1.5-.5,2.1-.6,3Z"/>
  <path class="cls-12" d="M58.3,143.9v-1.8c0-.5.3-.5.6-.6,0,.8.3,2-.6,2.4h0Z"/>
  <path class="cls-1" d="M69.6,110.1c1.3-2.2,2.8-4.4,4.2-6.5-.5.4-2,6.1-4.2,6.5Z"/>
  <path class="cls-15" d="M164.5,219.8c-1-.2-1.3-.5-1.8-.6l1.8.6Z"/>
  <path class="cls-6" d="M191.8,212.6c.7,0,.8-1.4,1.6.6h.8c-.4,0-1.3.8-2.4,0v-.6h0Z"/>
  <path class="cls-6" d="M60.7,129.7c.2-.6.5-.9.6-1.2l-.6,1.2Z"/>
  <path class="cls-15" d="M197.7,220.9c-1.1-.3-.9-1-1.2-1.8.7.4.8,1.1,1.2,1.8Z"/>
  <path class="cls-3" d="M58.6,156.9c.4.2.4.4,0,.6v-.6Z"/>
  <path class="cls-14" d="M99.3,221.5c-.3-.2-.5,0-.6-.6l.6.6Z"/>
  <path class="cls-4" d="M173.4,223.9h-.6v-.6l.6.6Z"/>
  <path class="cls-3" d="M74.3,103.6h-.6c.1-.2.5-.4.6-.6v.6Z"/>
  <path class="cls-7" d="M258.8,255.3l1.8-2,23.7-11c.2,1.2-.8,1.7-1.6,2.3-3.7,2.7-9.4,4.3-13,6.6s-2.7,2.4-2.6,3.6c1.6,1.3,15.1-6.7,18.7-6.5s.8,2.1-.6,3-4.4,2.8-6.2,3.9c-3.1,1.8-15.7,6.3-16.5,9s-.3,2.9.7,3.8c2.2,1.8,3.4-1.8,5.2-2.6s2.3-.6,4.7-1.8,11-3.2,13.5-3.2,2.1,1.2,3.4,1.1.1-1.7,1.2-1.2l1.5,2.4c-1,.6-3.1,1.9-3,3-1.2-.1-4.4,1.1-5.3,1.8-.5-6.4-3.2-2.4-5.7-.7s-1.6.4-2,.7c.3-1.8-.8-1.3-1.9-1s-8.2,2.7-8.7,3.8,0,1.9,0,2.5c-.5,2.1-1.7,5.6-4,6.4s-2.4,0-2.5.1c-.4.4.8,2.7.6,3-.4.5-5.2.9-6.1,1.3s-.8,1.3-1.1,1.5c-.6.4-1.7,0-2.1.2s0,2-1,2.2-1.6-.7-2.8-.5-2.7,2.1-4.4,2.1-2.1-1-3.5-1.1c-3.4-.1-1.9.7-5.7-.7s-3.4.6-2.9-2.8c-1.4.8-3.8,1.3-5,1.9s-.9,1.6-1.3,1.7c-2.1.6-1.5-1.9-2.6-3.3-2.2-2.7-9.1-5.1-8.3-9.8-2.1,1.3-4-.9-4.7-2.7s2.3-.9,2.8-1.6-.2-1.6.4-1.6,3,.5,3.4.7c.9.5.9,1.6,1.3,1.7,1.2.2,2-1.3,3.5-1.2s3.9,1.9,5.4,1.8,0-1.3,1.2-1.3c1.6,0,4.3,2.6,6.2,1.3,1.2.4,2.5.9,3.6,0s1.1-2.9,1.2-3c.4-.3,2.4,1,3.3,1.2,1.6.2,4.2.2,5.8,0,2.8-.3,5.9-2.3,8.1-4.1s1.5-.9,1.8-1.2c1.7,0,3.6,2.1,4.8.3-1.8-2.6.2-6.5-2.4-9.2v-.6l-.3-.2Z"/>
  <path class="cls-3" d="M255.9,219.8c0,4-4.2,3.3-4.7,7.1,1.2,1.2,9.1-7.1,11-4.2s-.8,2.6,2.6,3c-1.8,2.7-5.1,4.2-8.3,4.1s-1.3-1.1-2.9-.3-6.2,9-6,2.7c.8-1.1,2.5-3.2,0-3,.1-.2-.2-1.5.3-2.3s1.9-1.2,2.7-2.1c1.7-2,2.5-4.7,5.3-5.1v.1ZM256.1,227.5v.6c.4-.2.4-.4,0-.6Z"/>
  <path class="cls-6" d="M213.1,219.2c.9,1,1.5,2.5,2.4,3.6-.7-.1-1.6,0-2.4,0,.8,1.6,1.3,7.3,0,8.3s0-1-1.8.6c-.8-2.7-3.8-4.4-5.8-6.1s-.1-.9-.2-1v-1.2c.5.4,2,1,2.4.3-1.4-.9-2-2.8-3-3.9,2,0,3.8-2.3,5.9-3,.7.7,1.7,1.6,2.4,2.4h.1Z"/>
  <path class="cls-14" d="M207.2,248.8s.8.4,1.2.6c2.7,1.1,7.7,9,10.1,11.9-.1,0-.5.5-1.2.3-1.7-.6-4.5-4.8-6.5-5.4s-2.1,1.5-5.4.4c0-1.7-1.6-2.1-2.4-3s-.5-.4-.6-.6v-2.4c.1-.3,1.1-1.7,1.2-1.8.3-.1,3.1,0,3.6,0h0Z"/>
  <path class="cls-14" d="M198.3,228.6l1.2.6h.6c2.4,1.7,1.8,1.5,4.7,3s.4.5.6.6c.5,1,1.3,3.2.6,4.1s-3,.9-3.6,1.8h-.6c-1.7-.6-3.9-1-5.3-2.4-2.9-2.7-.5-3.7-1.2-6.5q1.1-1.3,3-1.2h0ZM201.9,233.4c-.4-.4-3.3-2.1-4.1-1.2l3.3,2.3c1,.5,1.1-.8.8-1.1Z"/>
  <path class="cls-7" d="M242.8,236.9c0,.6.7,2.3.4,3.2s-1.8,1.4-1.6,2.7l2.3.3c-.6,2.9-1.5,2.1-3.3,2.9s-1,1.8-3.2,1c-.4-2.3,3-.8,2.4-3-2.7.4-3-3-3.7-3.4s-2.7.3-1.2-1.4,1.3-1.1,1.4-1.1c1.4-.4,4.4,1,6.5-1.2h0Z"/>
  <path class="cls-1" d="M214.3,250c1.5,1.4,2.7,2.8,4.2,4.1l-3.6.3c1.3,1.4,2.7,2.6,4.1,3.9l-.6.3c-.4,1.2,1.3,2.2,2.4,3.2-.8-.2-1.6-.5-2.4-.6-2.4-2.9-7.4-10.7-10.1-11.9,2.4.3,1-3.3,3.2-2.3s1.9,2.2,2.7,2.9l.1.1Z"/>
  <path class="cls-6" d="M223.2,254.1c-2.7,1.3,0,2.1.6,3.3s.4,1.3.6,1.5c-.6-.1-1.3-.2-1.8-.6-1.5-1.2-3.1-3.1-4.2-4.1s-2.6-2.8-4.2-4.1c.3-2.2-.5-3.7-1.8-5.3,4.7,3.3,6.7,5.8,10.7,9.5l.1-.2Z"/>
  <path class="cls-13" d="M265.9,272.5c.2-.7-.2-1.7,0-2.5s7.1-3.5,8.7-3.8,2.2-.7,1.9,1c-2.3,1.4-5.1,3.7-8.3,4.7s-1.6.4-2.4.6h.1Z"/>
  <path class="cls-1" d="M256.4,229.8c0,2-3.6,1.8-4.5,3.6s-.2,2.8-.3,4.2c-.2-.5-.7-1-.6-1.7-1.7-.3-3.4.8-4.1,2.3-.6-.8-1.3-3.5-1.1-4.3s1.4-1.2,1.7-1.6c-.3,6.4,4.5-2,6-2.7s2.3.3,2.9.3v-.1Z"/>
  <path class="cls-1" d="M208.4,231.6c-1.4-.4-4.2-1.3-3.6.6-3-1.4-2.4-1.2-4.7-3,1.3-1.8,2.5-2.9.6-4.7.6.5,1.6.7,2.4,1.5,1.9,1.8,3.3,4,5.3,5.6h0Z"/>
  <path class="cls-10" d="M213.7,235.8c.3-.7,1.7-1,2.5-.9,1.4.2.7,1.5,1.7,1.5v-1.2c1.4,1.7,3.8,3.1,4.8,4.7s.7,1,.6,1.8c-4.2,1.9-5.6-5.7-9.5-5.9h-.1Z"/>
  <path class="cls-1" d="M219.1,242.9c0,1.2-.6,1.8-1.8,1.8-2-1.7-4.2-3.8-7.1-3.6,3.4-.9,2.8-1.5,3.6-4.1l5.3,5.9h0Z"/>
  <path class="cls-8" d="M220.9,261.8c2.4,2.2,5,3.6,7.7,5.3.3,2.2-1.1.9-2.4.6s-.4,0-.6,0l-1.2-.6c-3.6-1.9-3.8-3.3-5.9-5.9.8,0,1.6.4,2.4.6Z"/>
  <path class="cls-1" d="M228.6,267.2c1.3.9,2.1,2,3.3,2.9l4.4,1.9c-1.1.9-2.4.4-3.6,0-1.9-.6-5.5-2.5-6.5-4.1,1.3.3,2.7,1.6,2.4-.6v-.1Z"/>
  <path class="cls-14" d="M193,234.6l3,3c1,1,2.4,2,3.6,3-.2.2,0,1.4-.9,1.8-1.6-2.2-6.6-4.9-5.6-7.7l-.1-.1Z"/>
  <path class="cls-14" d="M217.9,235.2c-.4-.5-1.6-.5-1.2-1.8,3.1.5,5.1,3.7,6.5,5.9l-.6.6c-.9-1.6-3.3-3-4.7-4.7Z"/>
  <path class="cls-6" d="M201.9,238.7c.5,2-1.4.6-2.4,1.8-1.2-.9-2.4-1.9-3.6-3l.6-1.2c1.5,1.4,3.6,1.8,5.3,2.4h.1Z"/>
  <path class="cls-1" d="M196.5,236.4l-.6,1.2c-1-.9-2-2-3-3,.4-1.2,1.6-3.9,2.4-4.7.7,2.8-1.7,3.8,1.2,6.5h0Z"/>
  <path class="cls-8" d="M218.5,223.3l-.6.6c-1-.3-1.9-1.1-2.4-1.2-.8-1.1-1.5-2.5-2.4-3.6l.6-.6,4.7,4.7.1.1Z"/>
  <path class="cls-3" d="M206,236.9c-.4.8.4,1.6-1.3,2.5s-2-.7-2.2-.8c.5-.9,3.4-1.6,3.6-1.8l-.1.1Z"/>
  <path class="cls-1" d="M206,236.9c.7-.9,0-3.2-.6-4.1.7.4,1.5-.2,1.8,1.5s-1,2.2-1.2,2.7v-.1Z"/>
  <path class="cls-10" d="M205.4,256.5c-1.7-.6-2.5-.8-2.4-3,.8.8,2.5,1.3,2.4,3Z"/>
  <path class="cls-1" d="M207.2,248.8c-.5,0-3.2-.1-3.6,0,.6-1,3-1,3.6,0Z"/>
  <path class="cls-7" d="M237.5,244.1c.6.6-.5,1.8-1.2,1.2s.5-1.8,1.2-1.2Z"/>
  <path class="cls-10" d="M202.5,252.9c-1-1.5-.6-1,0-2.4v2.4Z"/>
  <path class="cls-1" d="M199.5,229.2l-1.2-.6c1,0,1,.5,1.2.6Z"/>
  <path class="cls-1" d="M225.6,267.8c-.6-.2-.8-.4-1.2-.6l1.2.6Z"/>
  <path class="cls-7" d="M244.3,241.1c.4.2.4.4,0,.6v-.6Z"/>
  <path class="cls-3" d="M239.2,111.3c.9,2.2,1.8,5.2,3,7.2,7.8,13.1,8.4,29.6,7.1,44.7s1,7.9-1.2,8v.6l1.2.3c-1.1,1.9-.3,4-.7,5.9s-2.5,3.5-2.8,4.9c-.6,2.7-.9,5.7-2.1,8.6-2,5-4.2,2.1-7.5.5.1-.5-.1-1.3,0-1.8,2.9-.5,2-4.3,2.4-6.5s0-.4,0-.6c.5-1.8,1.7-.5,1.8-.6.2-.3,1.1-5.5,1.2-6.2.2-2.3,0-5,0-7.4s0-.4,0-.6c1-.6.6-2.4.6-3.6v-1.8c.9-1.9,2-3.4,1.8-5.6s-1.1-.3-1.2-.7,0-2.7,0-3.8,0-.4,0-.6c-.1-1.9-.3-3.8-.6-5.9s-.3-3.7-.6-5.3l.6-2.4,1.8,3c0-2.2.6-6.7-2.4-7.1l-.6,3.6c0-.9.4-2.5-.6-3v-.6c.4-.9-.6-3.9-1.2-5.9s-.9-4.8-3-6.5c-.2-1.8-.9-3.1-1.2-4.7s0-.8,0-1.2c.4.5,1.1,1.6,1.6,1.7,4.3.9-.9-5.4-.4-7.6l3,1.2v-.2Z"/>
  <path class="cls-7" d="M147.3,58.6c.6-4.1-6.2-3.2-7.1-5-.3-1.2.5-.8,1.2-1.1,3.6-1.6,3.2,0,5.6.2,4.8.4,10.3-.6,14.8-.5s11.8,3,9.8,4.7c-5.5.7-10.2-1.7-15.5-.4s-4,1-3.5,2.2h-1.8c.2-3.1-2.5-3.2-2.4,0h-1.2l.1-.1Z"/>
  <path class="cls-7" d="M171.6,63.3c4.8.4,8.8,3.6,13,4.7,1.5,2,2,2.7-.6,3.6-5.3-2.2-13.9-5.2-19.6-6.5,0-4.5,4.5-1.3,5.7-1.2s1.3-.6,1.4-.6h.1Z"/>
  <path class="cls-1" d="M231.5,109.5h-1.8c.9-.2.9.2,1.3.8,1,1.7,2.8,4.8,2.9,6.9s0,2-1.2,2.4c-2.6-3.9-6.3-10.3-8.9-13.6v-.6c.7-.9,2.9-.5,3-.6.2-.6-1.3-2.5,0-3,1.9,2,3.3,5.3,4.7,7.7Z"/>
  <path class="cls-14" d="M159.2,64.5h.6c1.4.3,3.2.2,4.7.6,5.6,1.3,14.2,4.3,19.6,6.5s6.8,3,10.1,5.3c.1,1.3,0,1.3-1.2,1.2-5.4-3-13.1-6.2-19-8.3s-.6-.4-1.2-.6-.4,0-.6,0-.2-.5-1.2-.6-.8,0-1.2,0c-3.2-1.9-8.8-3.2-12.5-3.6v-.6h1.8l.1.1Z"/>
  <path class="cls-14" d="M171.6,63.3c-2.9-1.7-6.8-1.8-10.1-2.4.2-1.1,3.1-.6,3.8-.6,6.9.6,12.9,4,19.5,4.1s.3.9.8,1.2c4.5,2.7,4.3,3.8-1,2.4s-8.2-4.4-13-4.7Z"/>
  <path class="cls-3" d="M226.8,101.8c-1.3.4.2,2.4,0,3s-2.3-.3-3,.6c.3-2.1-3.1-7.4-3.8-4.2l-.9-.6c.4-4.6,2.2-1.5,3.6-.9,2,.8,2.4.3,4.1,2.1h0Z"/>
  <path class="cls-2" d="M218.5,100.6c1.2,1.3,2.5,3.1,3.6,4.1-.2.2-.4.4-.6.6-.5.7-.7,1.4-1.8,1.2-.8-2.3-2.1-4.5-4.2-5.9-.2-.4-.4-.8-.6-1.2v-.6c.2.2,1.7,1.3,1.8,1.2l-.6-1.8c.7.8,1.7,1.6,2.4,2.4h0Z"/>
  <path class="cls-8" d="M209,90.6c2.6,2.7,4.6,5,7.1,7.7l.6,1.8c0,.1-1.5-1-1.8-1.2-2.5-2.3-4.4-5.2-7.1-7.7,0-.3,0-.5.3-.6,0,0,.9,0,.9,0Z"/>
  <path class="cls-6" d="M219.1,100.6l.9.6c.8-3.3,4.1,2.1,3.8,4.2v.6c-.3-.4-1.4-.8-1.8-1.2-1.1-1.1-2.4-2.8-3.6-4.1h.6l.1-.1Z"/>
  <path class="cls-5" d="M207.2,81.1c.8.5,2.3,2.1,3,3l-1.2.6c-2.4-1.9-3.7-1.3-5.3-4.7,1,0,2.8.7,3.6,1.2l-.1-.1Z"/>
  <path class="cls-8" d="M199.5,81.7l-.6.6c-.8-.6-1.6-1.2-2.4-1.8-1.2-.8-2.3-1.7-3.6-2.4,1.3.1,1.3,0,1.2-1.2,2.3,1.6,3.5,3.2,5.3,4.7l.1.1Z"/>
  <path class="cls-1" d="M198.9,82.3c2.1,1.7,3.3,3.2,5.3,5s1.3,1.7,1.2-.3c1.2,1.2,2.4,2.3,3.6,3.6h-.9c-.4.1-.3.3-.3.6-2.2-2-5.6-4.3-7.8-6.2s-2.3-3.3-3.5-4.5c.8.6,1.6,1.2,2.4,1.8Z"/>
  <path class="cls-14" d="M205.4,87c.1,2-.3,1.1-1.2.3-2-1.8-3.2-3.3-5.3-5l.6-.6c2.3,2,3.7,3.2,5.9,5.3Z"/>
  <path class="cls-3" d="M196.5,70.4c.5.2,2.9,1.1,3,1.2.4.4-.6,1.1-.6,1.2-2-.2-3.5-1.1-5-2.4-.8-1.3,2.5,0,2.7,0h-.1Z"/>
  <path class="cls-8" d="M210.2,84l5.3,5.9c-2.2-1.8-4.3-3.6-6.5-5.3l1.2-.6Z"/>
  <path class="cls-2" d="M231.5,109.5c1.3,2.1,1.9,4.6,3.6,6.5v1.2h-1.2c0-2.1-1.9-5.1-2.9-6.9s-.4-1-1.3-.8h1.8,0Z"/>
  <path class="cls-7" d="M187.6,71c.6.6-.5,1.8-1.2,1.2s.5-1.8,1.2-1.2Z"/>
  <path class="cls-5" d="M401.8,184.8c2.5-.8,2.5,4.2,5.3,1.8.2.3,1.5.7,1.2,1.8-2.1,1.4-2.4,2.1-5.9,3s-16.9,6.2-21.9,9.2-1.5,0-1.2,2.1c-4.4,1.5-7.9.9-5.3,6.5-2.1.7-4.9,2.9-7.7,2.4.2-1.1-.5-2.3-.5-3.3s.5-.8.5-.9c3,1.6,3.5.3,3.6-2.6l-3.6-.9v-2.4c3.4-1.9,6.7-4.1,10.1-5.9,1,1.8-6,4.6-1.5,4.2s14.3-7,20.3-8.7,4.4-.2,5.7-.7-.3-2.5,2.2-1.8l-1.2-3.6-.1-.2Z"/>
  <path class="cls-2" d="M415.4,187.2c-1.8-.5-2.7,3.1-4.2,3.8-2.2,1-2.5,1-4.8,2.4s-3.6-.2-2.9,3.9c-.4.1-1.2,0-1.8,0s-1.6-1.6-1.8,1.2c-8.6,5-16.8,7.7-26.1,10.7-2.6-5.6.9-5,5.3-6.5,8.1-2.8,16.6-5.3,23.1-11.3,3.5-.9,3.8-1.6,5.9-3s5.8-.4,5.3-4.7c.7.7,3.7.6,1.8,3.6l.2-.1Z"/>
  <path class="cls-9" d="M370.9,196.1c9.9-6,21.4-11.8,32.3-15.4,2.3-.8,5.3-1.3,7.7-1.8l-.3,2.4c-.4,0-1.1.1-1.2,0s.2-.9,0-1.1c-1-.9-6.4,3.5-7.6,4.1-7.5,3.6-14.7,6-22.5,10.1s-.8.4-1.2.6-1.1.2-1.8.6c-3.4,1.8-6.7,4-10.1,5.9s-2,1.3-2.8,1.8c-2.1,1.2-4.1,3-6.7,3,4.6-2.8,9.4-7.1,14.2-10.1v-.1Z"/>
  <path class="cls-5" d="M341.9,230.4c-.3-.1-1.1.3-1.2-.4-.5-2.1,1.9-4.9.6-7.3-2.7,1.3-5.9-.8-8.5.1s-1.1,2.6-2.8,2.3c.5-2.6-2.8-4-3.4-4.9s0-1.2-.1-1.6c-.5,0-1.7.1-1.8,0s0-1.8,0-2.4c.3.3,1.7,1,1.8,1.2s0,.8,0,1.2c3,.4,1.9,1.4,3,2.1s3-1.5,4.5-2.1c3.6-1.4,5.2-.4,8.1-.7s4-2.5,5.5-2.8,4.7-.2,3.6,1.8-5.7,3.5-6.8,5.1c-1.6,2.5-1.9,5.7-2.4,8.5l-.1-.1Z"/>
  <path class="cls-2" d="M366.2,203.8l3.6.9c-.1,2.9-.6,4.2-3.6,2.6v-3.6.1Z"/>
  <path class="cls-5" d="M401.8,197.2c-.2,1.1-1.3.9-1.8,1.2.2-2.8,1.6-1.2,1.8-1.2Z"/>
  <path class="cls-8" d="M410.7,181.2c3.3.8,1.6,1.1,3,2.4.5,4.3-3.7,3.7-5.3,4.7.3-1.1-1-1.5-1.2-1.8-1.5-2.7,1.2-2.8,2.4-5.3.1.1.8,0,1.2,0h-.1Z"/>
  <path class="cls-13" d="M292,217.4l.3.6.3-.6h1.2v1.2c-1.8.3-3.9,1.4-5.5,2.4s-1.9,1.5-1.6,2c1.4,2.2,5.1-.5,6.5.4s.5,4.3,1.3,5.5,1.7.8,2.9.9.5.3.6.6c-.4,2.2.9,4.8,1.8,7.1-1.8-.4-12.6,4.5-10.7,6.5l11.3-3.6c.6,1.4,2.1,4.1,3,5.9-2,.7-4.7.8-6.5,1.8s-.4.4-.6.6h-.6c-4.1,1.7-4.4,2.2-7.1,5.5-2.7,3.3-2.7,1.4-.9,1.6s5.8-2.1,7.4-3,1,.1,1.2,0c1.3.2,1.5,2.6,1.9,2.9.8.5,4.2-.4,5.2,1.3-.7.3-1.4.9-1.2,1.8-1.8-.2-7.7,2.5-9.5,3.6l-1.5-2.4c-1.1-.4-.9,1.2-1.2,1.2-1.3.1-1.8-1.1-3.4-1.1-2.5,0-11.4,2.1-13.5,3.2s-2.4.9-4.7,1.8-3.1,4.4-5.2,2.6-1.1-2.6-.7-3.8c.8-2.7,13.4-7.2,16.5-9s4.5-2.7,6.2-3.9,3.5-2.9.6-3-17.1,7.9-18.7,6.5c0-1.2,1.8-3,2.6-3.6,3.6-2.3,9.3-3.9,13-6.6s1.8-1.1,1.6-2.3l-23.7,11-1.8,2c-.3-1.2-1.4-2.4-1.8-3.6,1.9-3.1,1.5-1.1,4.3-1.9s9.1-5.1,11.5-6.3,5.7-3.2,8.7-4.2c1.3-.7-.2-2.9-1.6-2.3-4.1,1.7-8.2,3.8-12.3,5.5s-1.8.2-2.5.4-.5,1.1-.7,1.2c-2.5.9-.4-2.5-2.9-1.7s-3,4.6-6.3,3.5c-.4-2.1-1.5-3.6-2.4-5.3s-.5-.4-.6-.6l.6-4.1c2.2,0,2.5,1.3,3.3,3,4.5-2.3,12.1-3,16.3-5.7s1.4-1,1.2-2l-3.8-.6c-.7-.2-.3-.8,0-1.2,1.1-1.7,8.7-4.4,11.1-5.5s2,0,1.6-1.6c1.5-.3,2.8-.7,4.3-1.2l3.4-3.5h1.8v.1Z"/>
  <path class="cls-2" d="M315.8,214.4c4.8,8,7.8,16.9,11.8,25.2s2.5,1.3,1.7,3.4-1,.8-1.1,1c-3.5.3-7.4,4.5-10.9,3.4s-.9-1-1-1.1c.6-2.4,4.2-2.4,6.3-3.4,4.4-2.2,4.3-4.9.8-8.1s-3.5-1.6-7-1-1.8-.6-2.5-.2c-1.5.9.7,2.4.6,3.6s-1.2.3-1.2.3c-1.5-1.7-2.2-2.9-4.7-2.4-2.1-5.3-4.9-11.1-7.7-16,1.6.4,1-1,1.8-2.4.8,2.3-.4,4.2,1.2,6.5.8.5,4.7-1.8,6.2-1.7s1.6,1.4,2.8,1.1,1.3-1.5,1.9-1.7,1.6,2.4,2.7,1.2,0-3.3-1.8-2.4c1-2,0-3.5,0-5.3h.1Z"/>
  <path class="cls-8" d="M313.4,209.7c0,.3,1.7,3.3,2.4,3.6v1.2c0,1.8,1,3.3,0,5.3,1.8-.9,2.4,1.7,1.8,2.4-1.1,1.2-1.9-1.5-2.7-1.2s-1.1,1.5-1.9,1.7c-1.2.3-1.8-1-2.8-1.1-1.5-.1-5.4,2.2-6.2,1.7-1.6-2.3-.4-4.2-1.2-6.5,1.5-2.6,2.8-3.1,5.3-4.7.7-.3,1.3-.4,1.8-.6l.6-.6c1-.5,1.8-1.1,3-1.2h-.1Z"/>
  <path class="cls-8" d="M313.4,237.5s1.2.2,1.2-.3c0-1.1-2.1-2.6-.6-3.6s1.6.3,2.5.2c3.5-.6,3.9-1.8,7,1s3.6,5.9-.8,8.1c-2.2,1.1-5.8,1-6.3,3.4h-1.2l-3.6-1.8c0-.3.6-1.1.6-1.8,0-2.1-1.9-2.3.6-3l.3.6c1.9.2.3-1.1.3-1.2v-1.8.2Z"/>
  <path class="cls-5" d="M299.7,220.4c3,4.6,4.2,10.3,6.2,15.4s5.5,10.9,6.7,15.2.1,1.3.1,2c-.8-.4-1.7,0-2.3-.9-1.5-2.2-3-8.5-4.1-11.4s-2.5-5.8-3.7-9.1-2.5-7.1-3-11.3l.1.1Z"/>
  <path class="cls-8" d="M329.4,238.1c-.8-1.5-3-2-1.8-4.7s.4-.9.6-1.2.8.1,1-.1c1-1.2.8-3.4,3.4-3.4,5.1,0,2.6,8.3-.5,9.6s-1.8.2-2.8-.2h.1Z"/>
  <path class="cls-11" d="M298,215.6c.3,0,.8-.2,1.1,0s0,.8,0,1.1c.4,1.3.4,2.2.6,3.6.5,4.1,1.5,7,3,11.3-1.8-.8-3.2-6.3-4.3-7s-2.1-.4-1.7,1.1c-.1-.4-1.4-1.5-1.2-1.8l1.2-.6c-1.4.2-2.8-3.7-3-4.7s0-.8,0-1.2c.1-3.2,1.5-2.4,4.2-1.8h.1Z"/>
  <path class="cls-12" d="M298,230.4c0-.3.7-2.6,1.2-2.4,2,5.3,3.8,11,5.9,16.3s3.3,4.4,2.7,6.8l-2.7-2.4c-.4-.9-1.6-2-1.8-2.4-.9-1.9-2.4-4.5-3-5.9s-.2-2-.6-3c-.9-2.3-2.2-4.9-1.8-7.1l.1.1ZM298.9,231.6v.6c.4-.2.4-.4,0-.6Z"/>
  <path class="cls-5" d="M293.8,218.6c.2,1.1,1.6,5,3,4.7l-1.2.6c-.3.3,1.1,1.4,1.2,1.8.5,1.3.7,2.7.6,4.1-1.2-.2-2,.4-2.9-.9s-.6-5.1-1.3-5.5c-1.3-.9-5.1,1.8-6.5-.4-.2-.5,1.3-1.8,1.6-2,1.5-1.1,3.6-2.1,5.5-2.4h0Z"/>
  <path class="cls-5" d="M296.2,252.9c.1,0-.1-1.1,1-1.7s4.6-1.2,5.1-1.1c3,.3,1.4,4.7,5.1,4.6v.6c-.7.3-1.5,1.1-2.4,1.5s-1.5.1-1.8.3c-1.1-1.6-4.4-.8-5.2-1.3s-.5-2.7-1.9-2.9h.1Z"/>
  <path class="cls-2" d="M303.3,246.4c.2.3,1.3,1.4,1.8,2.4.9,1.9,1.9,3.9,2.4,5.9-3.7.1-2.1-4.2-5.1-4.6s-4.6.9-5.1,1.1c-1.1.5-.9,1.6-1,1.7-.2.1-.9-.1-1.2,0-4.7-2.1,1.2-.9.6-4.1h.6c.2,0,.5-.4.6-.6,1.8-1,4.6-1.1,6.5-1.8h-.1Z"/>
  <path class="cls-5" d="M319.3,215.6c1-.2,3,3.1,3.2,3.6.8,1.8,1,4.8,2.4,6.5s3,1.2,3.6,2.4c.9,1.7-1.7,2.5-.3,4.2-.2.3-.4.8-.6,1.2-1.5.3-1.3-.7-1.6-1.6-2.1-5.2-5-11-6.7-16.2v-.1Z"/>
  <path class="cls-11" d="M328.2,244.1c-.3.4,0,1-.9,1.7s-8,4-8.4,4.1-4.1,0-4.3-.2c-.4-.3-1.4-2.1-1.8-2.7.9.5,2-.6,2.4-.6h1.2c.2,0,.3.9,1,1.1,3.5,1.1,7.4-3.2,10.9-3.4h-.1Z"/>
  <path class="cls-5" d="M322.3,211.5c-.6.1-3.4.5-3.6.6s0,1.7,0,1.8c-1.1-1-1.8-2-1.8-3.6s.9-3.6,1.2-4.7c3.8.2,3.1,3.7,4.2,5.9h0Z"/>
  <path class="cls-5" d="M308.1,212.1c-2.5,1.6-3.8,2.1-5.3,4.7s-.2,2.8-1.8,2.4c-.4-.8-1.2-1.6-1.8-2.4,0-.3.2-.8,0-1.1s-.8,0-1.1,0l.9-2.4c.6.3.7,1.8,1.2,1.8s6.8-2.6,8-3h-.1Z"/>
  <path class="cls-5" d="M308.6,235.2c2.5-.6,3.2.7,4.7,2.4v1.8c-.2.1-.4.6-.6.6-2.5.6-.6.9-.6,3-1.4.3-1.3-.7-1.6-1.6-.7-2-1.1-4.1-1.9-6.1v-.1ZM311.3,238.7v.6c.4-.2.4-.4,0-.6Z"/>
  <path class="cls-11" d="M334.7,240.5c.5,1.2-2.4,2.6-3.2,2.4-1.3-.3-.7-2.6-.9-3,1.4-.6,3.4.5,4.2.6h-.1Z"/>
  <path class="cls-2" d="M315.2,246.4c-.3,0-1.4,1.1-2.4.6-.4-.8-1.2-1.3-1.2-2.4l3.6,1.8h0Z"/>
  <path class="cls-5" d="M324.7,215l-.6-1.2c.2.4.4.4.6,1.2Z"/>
  <path class="cls-7" d="M277.8,221.5c.8,2,3.2.9,4.7.6.3,1.6-.8,1.2-1.6,1.6-2.4,1.1-10.1,3.8-11.1,5.5s-.7,1,0,1.2l3.8.6c.2,1-.5,1.6-1.2,2-4.2,2.7-11.7,3.4-16.3,5.7-.8-1.6-1-3.1-3.3-3l-.6,4.1c-.5-1-.4-1.8-.6-2.4,0-1.3-.3-2.9.3-4.2.9-1.8,4.4-1.5,4.5-3.6,3.2,0,6.6-1.4,8.3-4.1h1.2c.5,0,1.8-.4,2.4-.6s.4-.4.6-.6c2.8-1.1,6-1.9,8.9-3v.2Z"/>
  <path class="cls-12" d="M235.7,194.3c-.2,1.9.8,2.8.5,3.7s-1.2,1.1-1.4,1.6c-.9,2.4-.8,4.8-3.3,6.5,1.2-3.7.6-9,4.2-11.9v.1Z"/>
  <path class="cls-3" d="M290.3,217.4l-3.4,3.5c-1.4.6-2.7.9-4.3,1.2s-4,1.4-4.7-.6c2.4-.9,5.5-2.9,8.3-3.6s2.8-.5,4.2-.6l-.1.1Z"/>
  <path class="cls-5" d="M309.8,211.5c.1,0,.3-.5.6-.6l-.6.6Z"/>
  <path class="cls-3" d="M292,217.4h.6l-.3.6-.3-.6h0Z"/>
  <path class="cls-15" d="M244,231.6c-1.2.2-1.4,0-1.2-1.2l1.2,1.2Z"/>
  <path class="cls-15" d="M268.3,225.1c.2-.2.4-.5.6-.6-.2.2-.4.5-.6.6Z"/>
  <path class="cls-12" d="M220.3,221.5c-.6.6-.8,1.1-1.8,1.8l-4.7-4.7c2.5-2.2,4.5,2.6,6.5,3v-.1Z"/>
  <path class="cls-8" d="M315.8,209.1s-1.3.2-1.2-.3c.9-1.6,1.9-.4,1.2.3Z"/>
  <path class="cls-15" d="M104.6,112.5v1.2c-5.4,5.1-8.2,9.8-11.3,16.6s-3,5.3-3,10.1c-.9.4-.6,1.6-.6,2.4-1.1,3.1-.6,7.3-.6,10.7-1-1.1-3.7-.6-4.1-.9-.8-.5-.8-2.5-2.4-2.1-.2,3.5,2,3.7-1.8,5.1.5,4.4-.2,8.9,0,13.2-2.1-4.6-2.9-10.4-3-15.4,2,.6,1-3.4,1.2-5.3.4-5.9,1.4-10.3,3.5-15.3s1.8-7.6,1.8-12c.8-1.5.9-2.5,2.4-4.1s1.5-1.7,1.6-1.8c.5-.2,1.3,0,1.9,0,1.8,0,4.2,1,4.2,3.2s-1.7,3.6.8,2.7,1.2-3.9,2.1-4.5,4,0,4.2-.3c.5-.5-1.4-4,3-3.6l.1.1Z"/>
  <path class="cls-7" d="M89.2,153.4c0,2-.5,5,.6,6.5.2,1.6.5,3.1,1.1,4.6,1.4,4,4,7.8,5.4,11.4s.5,2.4.9,3.5,1.2,1.1,1.5,1.5c.8,1.6-2.6,0-3,2.4s.9,1.3,1.2,1.9c.5,1.3,1.5,5.4,1.6,6.7s.3,1.6-.6,1.8-3.8-3.1-3.8-3.3c-.1-.7,1.2-1.3,1.2-2.3s-2.1,0-.6-2.7c-3.6,1-4.7-2.4-7.7-3.6-1.4-3.2-2.7-5.7-3.9-8.8s-.7-3.4-2-3v-1.2c-.2-4.4.5-8.8,0-13.2,3.8-1.4,1.7-1.6,1.8-5.1,1.6-.4,1.6,1.6,2.4,2.1s3.1-.2,4.1.9l-.2-.1ZM86.2,154.6c-.5-.5-2.8,1.3-2.4,2.4,1.9.3,2.6-.6,2.4-2.4ZM94.5,183c-.6-.6-1.8.5-1.2,1.2s1.8-.5,1.2-1.2Z"/>
  <path class="cls-7" d="M115.9,95.3c.8.6,3.8.8,4.1,1.3s.8,4.3,1.3,5.2c-.8.3-2.5.1-3.4.8s-.5,1.4-.7,1.6c-1,.4-3-.6-3,1.8-.4.2-.8.4-1.2.6-.7.4-1.3.5-2.4,1.2s-1.5,1.1-2.4,1.8c-1.2,0-3.8-.3-4.1.9s.6.8.6.8v1.2c-4.3-.5-2.5,3.1-3,3.6s-3.2-.4-4.2.3-.5,3.9-2.1,4.5c-2.5,1-.8-1.5-.8-2.7,0-2.2-2.4-3.3-4.2-3.2v-1.2c1.9.3,1.8-1.5,0-1.2v-.6l.6-.6c4.2.4,6.4-2.7,9.1-5.1s3.7-1,3.3-3.8c.5,0,2-.8,2.4-1.2,1.1.2,1.4,0,1.2-1.2,3.3-1,4.3-2.6,5.9-3.6s2.2-.8,3-1.2h0Z"/>
  <path class="cls-1" d="M101.6,187.8c4.6,1,4.5,8.1,9.5,7.1l-2.4-3.6c.2,0,.9-.9,1.8-.3s1.8,3,3.2,3.9,4.4.4,2.7,2.9c-.6-.3-2.6-1.6-3-1.2-1.9,2.1,4.2,4.8,5.3,5.7,2.1,1.7,4,3.9,6.5,5.4s2.8.4,3.5,2c3.6-.2,8-.7,11.5-.6l-.6,1.8h-1.8l-.3-.6-.9.6c-.5,0-1.2,0-1.2.6-3.3-.8-6.3,0-9.2,0-4.3,0-21.5-10.7-25.8-13.7,1.3,0,3.1-.1,3-1.8.2-.2,2.4,3.1,4.1,2.4.4-.4-2-3.8-2.3-4.3-.6-.8-4-4.1-4.1-4.4-.3-.8.5-1.5.5-2v.1Z"/>
  <path class="cls-15" d="M99.3,178.9c.4.4.5,1,1.2,1.2v.6c.5,1.6.8,3.3,1.8,4.7-1,.4-.5,1.6-.6,2.4s-.8,1.1-.5,2,3.5,3.6,4.1,4.4,2.7,3.9,2.3,4.3c-1.7.8-3.9-2.6-4.1-2.4.1,1.6-1.6,1.7-3,1.8-6.9-4.8-9.3-7.7-13.6-14.8,0-.4.1-.9,0-1.2,3,1.1,4.1,4.6,7.7,3.6-1.5,2.6.6,2.4.6,2.7,0,1-1.3,1.6-1.2,2.3s3.6,3.4,3.8,3.3c1-.2.7-1.2.6-1.8,0-1.3-1.1-5.3-1.6-6.7s-1.5-.2-1.2-1.9c.4-2.5,3.7-.7,3-2.4s-1.2-.9-1.5-1.5c-.4-1.1-.4-2.3-.9-3.5,1.2.8,2,2,3,3l.1-.1Z"/>
  <path class="cls-6" d="M92.7,207.9c3.4,2.9,11.3,8.3,15.2,10.6s11.8,5.1,12,6.3c0,1.3-1,1.5-2.1,1.5-5.6,0-14.4-6.8-19.4-9.5s.2-1-2.2-1.2-.4,0-.6,0v-1.2c-.3-1.1-2.6-2.8-3.6-3.6-.1-.3-.4-1-.6-1.2,0-1.4-.4-2.1,1.2-1.8l.1.1Z"/>
  <path class="cls-6" d="M127.1,87.6c.4.3.5,1.7.6,1.8-4.7.2-11.9,4.8-16.3,6.5l1.5.6c-1.6.9-2.6,2.5-5.9,3.6s-.7.7-1.2,1.2-1.9,1.2-2.4,1.2-1.3-1.1-1.8-.6,0,1.9-2.4,3.6c-1.2-.6-1.3-1.1-1.2-2.4l.6-.6v-.6l3.6-3.6c1.2-1.2,1.3-.6,1.2-1.8l.6-.6h.6c.1,0,0,.3.6.6s0,.6.3.6.7-1,.9-1.2c4.7-3.2,12.2-6.4,17.8-7.7l2.4.6c0-.3-.6-.5-.6-.6,0-.3,0-.5.3-.6.2-.1.6,0,.9,0h-.1Z"/>
  <path class="cls-3" d="M148.5,203.2l-3.6,1.2c3,.2,4.4,2.4,7.6,3.4s5.2,1.3,7,1.5,2.6.4,2.7.5.5,3.4,1.2,0c2.5.7-.2,2.7,0,3s3.4,0,2.4,2.4c-4-.9-7.2-1.1-11.3-1.2s-2,0-3,0c-.2-.1.8-1.4.6-1.8s-.7.1-1-.2-.2-.9-.2-1c1.4-.5,1.1,1.1,1.2,1.2.4.3,2.4-.6,3.3-.6s2.5.8,2.7.6,0-1.7,0-1.8c-.3-.3-6.5-1.6-7.7-2.1-1.7-.6-5.1-2-6.5-2.7s-2.2-1.8-1.8-2.4c2.1.2,4.4-.1,6.5,0h-.1Z"/>
  <path class="cls-10" d="M76.1,113.1c-.4,1.4-1.2,3,0,4.1-3.5,5.7-5.3,12.2-7.7,18.4,0-1.4.4-3.1-.9-4.1l-.9,3h-1.8c-.3-1.8.9-3.5,1.2-4.7l2.4.3c-.2-1.6,2.3-5.7-1.2-5,1-2.9.8-1.3,1.8-2.4l1.8.6c-.1-1.7.7-3.2,1.2-4.7s-.4-2.6,1.2-3l.6,2.4c.7-1.5-.1-4.7,2.4-4.7l-.1-.2Z"/>
  <path class="cls-6" d="M82.6,108.3c-1.5,1.7-3.2,3.2-4.2,5.3s0,.4,0,.6l-.6.6c-.5.7-1.4,1.7-1.8,2.4-1.2-1.2-.4-2.8,0-4.1,1-3.8,2.6-4.5,4.5-7.3s.9-3.9,2.6-4,1.1.9,2.5.5,2.6-1.7,3.4-2.3c-1.3,3.2-4.4,5.8-6.5,8.3h.1Z"/>
  <path class="cls-4" d="M74.3,159.3c1.2,4.8,3,11.3,4.6,15.9s4,6.6,3.7,10.2c-3.4-4-6.2-10.1-7.7-15.1s-1.3-6.9-1.8-11h1.2Z"/>
  <path class="cls-10" d="M79.7,193.1c2.8,4,9.4,11.7,13,14.8-1.6-.3-1.2.4-1.2,1.8-.2-.2-.8-.4-1.2-.6-.1-.7-.9-.9-1.2-1.2-4.2-4.6-6.9-7.6-10.1-13l.6-1.8h.1Z"/>
  <path class="cls-6" d="M84.4,120.8c0,4.4,0,7.8-1.8,12s-3.1,9.4-3.5,15.3l-1.2,1.2c.2-4,.9-9.8,1.4-13.7s2.9-4.6,3.5-7.2c1-4.2-.7-3.4,1.6-7.6Z"/>
  <path class="cls-4" d="M150.9,210.9s0,.6.2,1,.9.2,1,.2c.2.3-.8,1.6-.6,1.8h3c-.5,1.3-4.1,1.2-5,1.2-3.2-.1-6.7-1.1-9.8-1.8.5-1,2-.6,3-.6h2.4c.6,0,1,0,1.2-.6,1.7-.1,4.1.7,3.6-1.2h1.2-.2Z"/>
  <path class="cls-1" d="M103.4,102.4c.4,2.8-2.2,2.8-3.3,3.8-2.7,2.4-5,5.5-9.1,5.1,2.6-2.4,5.5-4.1,8.3-5.9s2.1-3.2,2.4-3.6c.5-.5,1.7.6,1.8.6h-.1Z"/>
  <path class="cls-4" d="M93.9,98.9l-.6,1.8h2.4c-1.2.9-6.9,6-7.7,5.6s0-1.3.5-1.9c.8-1.2,2.4-3.9,3.1-4.7s1.9-.6,2.4-.9l-.1.1Z"/>
  <path class="cls-2" d="M136.6,210.9h3c1.1,0,2.1.6,3.6.6s3.1-.5,4.7-.6,1.2,0,1.8,0c.5,1.9-1.9,1.1-3.6,1.2s-1,0-1.2.6h-1.8c-.3-.4-.5,0-.6,0-1,0-2.5-.4-3,.6-2-.5-3.1-1.5-4.2-1.8,0-.6.7-.6,1.2-.6h.1Z"/>
  <path class="cls-12" d="M128.3,219.8c.7.7,0,1.2-.9,1.2-2.2,0-6.8-2-8.6-3.6,1.4-.2,9,1.9,9.5,2.4h0Z"/>
  <path class="cls-12" d="M76.7,145.1h-2.4c-.4-.4-.3-6.5,2.1-6.5.4.9.5,6.3.3,6.5Z"/>
  <path class="cls-12" d="M79.1,194.9c-1.4-2.3-3.3-3.9-3-7.1,1.7-.4.9.6,1.4,1.3.7,1.2,1.6,3.1,2.2,4l-.6,1.8Z"/>
  <path class="cls-8" d="M104,95.9l-.6.6c-.6.5-1.3.8-1.8,1.5l.6.3-3.6,3.6c.1-.9,0-2,0-3,1.9-1.2,2.6-3,5.3-3h.1Z"/>
  <path class="cls-12" d="M73.2,148.1c.1-.2,1.7-.2,2.3-.7,1.8,7.7-4.3,2.9-2.3.7Z"/>
  <path class="cls-6" d="M80.9,170c1.4-.4,1.6,2,2,3,1.2,3.2,2.5,5.6,3.9,8.8s0,.8,0,1.2c-2.3-3.8-5.4-8.3-5.9-13Z"/>
  <path class="cls-14" d="M95.7,214.4c-3.2,1.3-1.8.2-2.4-.7-1.3-2-.6-1.4-1.1-2.9,1,.7,3.2,2.5,3.6,3.6h-.1Z"/>
  <path class="cls-12" d="M107.6,88.8s.5.1.5.3c-.2,1.1-4.2,2.1-5.2,2.7-.2-1.7,3.2-2.4,4.7-3Z"/>
  <path class="cls-1" d="M79.1,148c-.1,1.9.9,5.9-1.2,5.3v-4.1l1.2-1.2Z"/>
  <path class="cls-5" d="M73.2,159.3c0-.7-1.2-2.2-.6-3.6,2.1-.5,1.5,2.3,1.8,3.6h-1.2Z"/>
  <path class="cls-1" d="M90.4,112.5v2.4c-.6,0-1.4-.2-1.9,0s-1.3,1.4-1.6,1.8c.8-1.9,2.1-3.3,3.6-4.7v.6l-.1-.1Z"/>
  <path class="cls-12" d="M102.2,91.7c-.7.8.3.5-1.8,1.8,0-1.2.6-1.8,1.8-1.8Z"/>
  <path class="cls-10" d="M78.5,113.7c.9-2.2,2.7-3.6,4.2-5.3-.6,2-2.7,3.7-4.2,5.3Z"/>
  <path class="cls-14" d="M101,222.1c-.6-.6.5-1.8,1.2-1.2s-.6,1.8-1.2,1.2Z"/>
  <path class="cls-4" d="M96.3,96.5c.3,1.4-.8,1.3-1.8,1.8.2-2,1.4-1.5,1.8-1.8Z"/>
  <path class="cls-14" d="M90.4,209.1c-.3-.2-1.5.5-1.2-1.2.3.3,1.1.5,1.2,1.2Z"/>
  <path class="cls-12" d="M99.3,94.1c-.1,0-.5.7-1.2,1.2-.2-1.2,0-1.4,1.2-1.2Z"/>
  <path class="cls-10" d="M77.9,114.9l.6-.6c0,.2-.4.5-.6.6Z"/>
  <path class="cls-8" d="M98.1,103c0-.4.6-.6.6-.6l-.6.6Z"/>
  <path class="cls-8" d="M97.5,100c.2-.1.4-.4.6-.6l-.6.6Z"/>
  <path class="cls-4" d="M96.9,95.9l.6-.6c-.2.1-.4.4-.6.6Z"/>
  <path class="cls-12" d="M67.2,124.9c3.5-.7.9,3.4,1.2,5l-2.4-.3c.4-1.7.6-2.9,1.2-4.7Z"/>
  <path class="cls-12" d="M72,118.4c-.5,1.6-1.3,3-1.2,4.7l-1.8-.6c.8-.8-.2-4.9,3-4.1Z"/>
  <path class="cls-12" d="M59.5,146.3c-.2,2.4-.6,4.8-.9,7.1-.5,0-.3-6.2-.3-7.1h1.2Z"/>
  <path class="cls-4" d="M77.9,104.8c-.5,1.9.4,2.2-3,2.4.6-.7.4-2.9,3-2.4Z"/>
  <path class="cls-1" d="M117,73.4c.5-1.5,5.7-2,5.3-3.2-1.3-3.7-3.2-1.1-5.9-1.8,2.2-2,6.3-1.1,7.4-3.9,1.2,3.3,1.5-.3,2.4-.5s1.7.6,2.8.5c2.1-.2,4.4-.9,6.5-1.3s1.9-1.2,1.6.8c-.2,0-.5,1-1,1.2-2.3.5-5.4-.6-7.9.6l3.6.6s-.6.5-1.4.6-4.8-.3-5.1,0,2.1,3.1-1.2,2.4c-.1.5.6.5.6.6v1.2c-2.6.8-5.2,1.6-7.7,2.4v-.2Z"/>
  <path class="cls-12" d="M148.5,63.3h4.8v1.2c-3.6-.2-8.8-.6-11.9,1.2-3.2-1.4-3,.5-3.4.6-1.3.3-3.7-.4-6.1,0l-3.6-.6c2.4-1.2,5.6-.1,7.9-.6s.8-1.1,1-1.2c.4-.1,1.2,0,1.8,0,1.1-.2,3.2-.5,4.2-.6s3.8,0,5.3,0Z"/>
  <path class="cls-8" d="M125.9,69.8c0,.3.3.5.6.6h1.8l-1.2.9c0,.6.9.1,1.2.3s0,.5,0,.6c-2,.9-4.1.3-6.1.7-3,.6-6.6,3.4-9.3,2.2,1.3-.8,2.7-1.3,4.2-1.8,2.5-.8,5.2-1.6,7.7-2.4v-1.2h1.2l-.1.1Z"/>
  <path class="cls-3" d="M143.7,62.7l-.6.6c-1,0-3,.4-4.2.6-.8-1.3,2.6-1.7,3.9-1.7s.8.5.9.5h0Z"/>
  <path class="cls-1" d="M145.5,62.7c.9,0,2.5-.4,3,.6h-5.3l.6-.6h1.8-.1Z"/>
  <path class="cls-10" d="M93.9,87.6c0,.3,1,.8.6,1.8-4,.3-5.8,3-8.9,4.7,1.3-1.2,3.2-3.2,4.4-4.2s3.1-.7,3.9-2.4v.1Z"/>
  <path class="cls-15" d="M179.3,191.9l14.2,8.9c-.2,1.5,1.2,1.5,2.4,1.8v1.2c.4,2.4,2.1,2,3.6,3,.1.5-.2,1.4,0,1.8-.7-.3-1.8-.3-2.4-.6s-.5-.5-.6-.6c-.6-.8,1-1.6-1.2-.6s-1.7,1.9-3.6.9-2.2-4.8-2.4-5-3,0-3,1.8h1.8c.9.9-1.8,2.5-1.8,0-2.9-.4-1.8-.7-2.8-1.1-4.4-1.8-4.7,1.1-5.3,1.2-1.1.2-2.1-.6-2.6-.6v-1.8c2.5.3,1-5.1,1.2-5.3.4-.4,5.7-.8,0-2.4h-.6v-1.2c.7-.3,1.8-1.1,2.4-1.2s.4,0,.6,0l.1-.2Z"/>
  <path class="cls-8" d="M165.1,200.2c-.9,2.1,4.2,3.2,5.9,3.6,0,1.9,1.7,1,2.4,3.6-1.7,0-3.3-.7-4,1.2h-.8c-2-.4-3.9-1.1-5.9-.6v-.6c.6-1.6,5.4-.6,4.7-2.1s-4.2-4.1-4.7-4.2c-2.4-.7-1.6.7-2.2.9s-1,0-1.4,0c-.9-1.5,2-2.5,3.4-2.8s1.9.9,2.5,1.1l.1-.1Z"/>
  <path class="cls-6" d="M196.5,209.7c0,.9,1,.5,1.2.6s.1.9.6,1.2c1.1,3.3-.4,1.7,2.4,4.7-1.8-.8-1.8,1.2-2.1,1.2s-.3-1.9-2.1-1.2c.3-.3,1.1-.5,1.1-.7.3-.5-.6-1-.6-1.1,0-.2.8-1.1.6-1.2h-3v-.8c2-.6.3-1.6.6-3.3,0-.1,1.1.6,1.2.6h.1Z"/>
  <path class="cls-6" d="M199.5,208.5c.6,1.5,1.4,2.6,2.4,3.9-.9-.2-2.9-.5-3.5-.9-.2-.6,0-.6-.6-1.2s0-.9-1.2-.6c0,0,.2-1.4.6-1.8.5.3,1.7.3,2.4.6h-.1Z"/>
  <path class="cls-10" d="M173.4,203.8c-.6,0-1.1.3-2.4,0s-6.9-1.4-5.9-3.6c2.8,1,5.9,1.8,8.3,3.6h0Z"/>
  <path class="cls-12" d="M173.4,207.3v1.2c-.8,1.9-1.4.9-3,.6s-1.5-.5-1.8-.6h.8c.7-1.9,2.2-1.1,4-1.2h0Z"/>
  <path class="cls-12" d="M177,206.1l-.6-1.2c2.8-.7,2.2,1.1,2.4,1.2.3.2,2.1,1.7,2.3,1.8,1.2.5,5.1.2,4.9,2.4-1.5-.4-5-1.6-6.2-2.4s-.9-1.6-.9-1.7c-.2-.1-1.3.1-1.8,0l-.1-.1Z"/>
  <path class="cls-6" d="M195.3,206.7c2.2-1,.6-.2,1.2.6l-.3.6-.9-1.2h0Z"/>
  <path class="cls-3" d="M173.4,208.5v1.8c-1.1.6-2.6-.6-3-.6v-.6c1.5.3,2.1,1.3,3-.6h0Z"/>
  <path class="cls-14" d="M156.8,82.9c1,0,4.9.9,5.9,1.2,2,.6,3.1,1.6,4.7,2.4s2.4,1.9,4,2.2,4.6-.3,5.5.4,1.7,2.8,2.9,3.9v.6c-.4,0-.9.1-1.2,0s-.2-.5-.6-.6-1.7,0-1.8,0c.1-2.3-1-.6-1.2-.6-2.6.1-4.2-2.5-7.3-1.8s-.4,1.6-1.6,1.2c-.8-.4-1.5-.8-2.4-1.2s-3-1-4.2-1.2c-.1-.2-.6-.5-.6-.6,0-.5.1-1.4,0-1.8-.2-.6-7.1-2.2-8.3-2.4s-.8,0-1.2,0c-1.4,0-3.8-.4-4.7.6-3.9.1-8.6.6-12.5,1.2s-1,.6-1.2.6c-1.5.3-2.3,0-4.2.6s-.7-.1-.9,0c-.3.1-.3.3-.3.6-.6,0-1.3-.1-1.8,0-5.6,1.3-13.1,4.5-17.8,7.7l-1.2.6c-.6-.3-.6-.6-.6-.6v-.6l.6-.6c2.1-1.7,7.5-4.2,10.1-5.3s4.5-1.7,6.5-2.4l1.2-.6h.6l1.2-.6h.6c9.1-2.3,22.1-3.8,31.4-3l.4.1Z"/>
  <path class="cls-15" d="M139.6,78.1c.8.2,2.6-.7,2.4.9-.7,4.3-10.2,4-13.2,4.6s-3.9.9-3.4,2.2h-.6c-.8.2-1.1.6-1.2.6h-.6c-.6.2-.9.5-1.2.6-2.1.7-4.6,1.5-6.5,2.4h-3.6l.6-5.3c.9-.4,2.2-1.6,3-1.8,4-1.1,7.6,0,12.5-1.2s.4-.6.6-.6c3.7-.8,7.6-1.6,11.3-2.4h-.1Z"/>
  <path class="cls-8" d="M104.6,95.3c0-.3.4-.4.6-.6l-.6.6Z"/>
  <path class="cls-4" d="M205.4,223.3v1.2c-.6-.6-3.4-1.6-3.6-2.1-.4-1.3,1.4-1,2-.8s1,1.3,1.6,1.7h0Z"/>
  <path class="cls-6" d="M203.7,219.2l-.6-.6.6.6Z"/>
  <path class="cls-6" d="M202.5,218l-.6-.6.6.6Z"/>
  <path class="cls-15" d="M150.3,203.2h6c.8,0,3.2,1,3.3,1.1,1,.8.2,2.7,3.2,3v.6l-.6,1.8c-.1,0-2.2-.4-2.7-.5-1.8-.2-4.8-.8-7-1.5-3.2-1-4.6-3.2-7.6-3.4l3.6-1.2h1.8v.1Z"/>
  <path class="cls-14" d="M143.1,70.4c2.3-.4.2,1.2.6,1.7s1.1,0,1.1,0c.5.6,0,1.8,2.2,2.2s8.5-1.9,3.7,3.1c-4.2,1.4-7-.2-10.4,0s-.9.6-.9.6c-3.7.8-7.6,1.5-11.3,2.4-1.8-.2-2.2-2.4-4.2-3,1.8-1.3,1.7-3.3,5.3-3.6s4.2,0,4.7,0c2.5.3,4.1,1.3,6.5,1.2-.5-.8-2.6-1.9-3.4-2.2s-2,0-2.5-.1-.8-1-2.3-1.4-2.9-.2-4.2.2c-.3-.2-1.2.3-1.2-.3l1.2-.9c.3,0,.8-.6,1.2-.6,1.4-.2,3.8-.5,4.7-.6,3.6-.2,6.9,1.3,8.9,1.2l.3.1Z"/>
  <path class="cls-5" d="M128.3,80.5c-.2,0-.4.5-.6.6-2.6,1.1-3.7-1.2-3.9-1.2-1.2,0-6.8,1.4-8.6,1.8s-.4,0-.6,0c2.6-2.5,6.7-2.1,9.5-4.1,1.9.6,2.4,2.8,4.2,3v-.1Z"/>
  <path class="cls-10" d="M134.8,72.8l-.6,1.2h-4.7c-1.3-.3-1-1.5-1.2-1.8s0-.5,0-.6c1.3-.5,2.9-.6,4.2-.2s2.2,1.4,2.3,1.4Z"/>
  <path class="cls-1" d="M115.3,81.7c1.8-.4,7.4-1.9,8.6-1.8s1.3,2.3,3.9,1.2c-4.9,1.2-8.4,0-12.5,1.2,0,0,0-.6,0-.6Z"/>
  <path class="cls-3" d="M220.9,260.1c1.3.9,4.4,2.8,5.9,3,2.7.2-1.3-3.2,3-3,1,.8,4.9,2.7,5.1,3,.6.9,0,2.7,1.1,3.6s9.6,2.4,11.3,2.3c2.7-.3,4.9-2.4,7.5-2.9-2.2,1.8-5.3,3.8-8.1,4.1s-4.2.3-5.8,0-2.9-1.5-3.3-1.2-.2,2.2-1.2,3l-4.4-1.9c-1.2-.9-2-2-3.3-2.9-2.7-1.7-5.3-3.1-7.7-5.3s-2.7-2-2.4-3.2l.6-.3c.6.5,1.5,1.6,1.8,1.8l-.1-.1Z"/>
  <path class="cls-6" d="M258.8,255.3v.6c-.1-.1-1.1-.7-1.2-.6-1.4,5.2-7.7,10-13.1,9.5-.3-1.3.7-1.3,1.5-1.8,5.2-3.3,7.3-6.5,10.4-11.2,3.1-4.7.5,0,.6,0,.4,1.2,1.4,2.4,1.8,3.6v-.1Z"/>
  <path class="cls-15" d="M256.4,264.8c3.2-3,3.3-4.7,2.4-8.9,2.6,2.6.6,6.6,2.4,9.2-1.2,1.8-3-.2-4.8-.3h0Z"/>
  <path class="cls-7" d="M255.3,245.8c3.3,1.2,4.5-2.9,6.3-3.5s.3,2.6,2.9,1.7.1-.9.7-1.2,1.6,0,2.5-.4c4.1-1.7,8.2-3.8,12.3-5.5,1.4-.6,2.8,1.6,1.6,2.3-3.1,1-5.9,2.7-8.7,4.2s-9.5,5.7-11.5,6.3c-2.9.8-2.4-1.2-4.3,1.9s-.5,0-.6,0c-1.6-1-1-2.8-1.2-4.1s.1-1.2,0-1.8v.1Z"/>
  <path class="cls-1" d="M229.8,260.1c-4.3-.2-.3,3.2-3,3,.3-1.9-1.5-2.8-2.4-4.1s-.2-.9-.6-1.5c-.7-1.2-3.3-1.9-.6-3.3,2.1,2,4.2,4.1,6.5,5.9h.1Z"/>
  <path class="cls-4" d="M219.1,242.9c.7.7,3.7,4.6,3,5.3-2.4.2-3.5-2.5-4.7-3.6,1.2,0,1.8-.6,1.8-1.8l-.1.1Z"/>
  <path class="cls-4" d="M255.3,245.8c.1.5,0,1.2,0,1.8-2.8-.4-1.9-4.8-2.4-7.1.8,1.8,2,3.2,2.4,5.3Z"/>
  <path class="cls-5" d="M251.7,248.2c1.1,1.3-2.4,4.9-3,4.1s2.1-5.1,3-4.1Z"/>
  <path class="cls-1" d="M256.1,227.5c.4.2.4.4,0,.6v-.6Z"/>
  <path class="cls-4" d="M201.9,233.4c.3.3.2,1.6-.8,1.1l-3.3-2.3c.8-.9,3.8.8,4.1,1.2Z"/>
  <path class="cls-8" d="M218.5,254.1c1.1,1.1,2.7,2.9,4.2,4.1.2,1.9.1,2-1.8,1.8-.3-.2-1.2-1.2-1.8-1.8-1.4-1.2-2.8-2.5-4.1-3.9l3.6-.3-.1.1Z"/>
  <path class="cls-2" d="M224.4,258.9c.9,1.4,2.6,2.3,2.4,4.1-1.5-.1-4.7-2-5.9-3,1.9.2,2,.1,1.8-1.8.5.4,1.2.5,1.8.6l-.1.1Z"/>
  <path class="cls-4" d="M235.7,125.5c0,.1,1,0,1.5.6.8.9.4,2.7,2.1,2.4.6,2,1.5,5,1.2,5.9h-2.4c-.8-2.9-2.1-5.8-2.4-8.9h0Z"/>
  <path class="cls-1" d="M241.6,168.8c0,2.4.2,5.1,0,7.4s-1,6-1.2,6.2-1.3-1.2-1.8.6c.8-4.8,1.9-9.5,3-14.2Z"/>
  <path class="cls-12" d="M235.1,117.2c.3,1.6,1,2.9,1.2,4.7s.3,3.6-1.2,3c-.7-1.1-1.5-4-2.4-5.3,1.2-.4,1.2-1.3,1.2-2.4,0,0,1.2,0,1.2,0Z"/>
  <path class="cls-15" d="M241,138l.6-3.6c3,.4,2.3,4.9,2.4,7.1l-1.8-3-.6,2.4c-.1-.9-.5-1.6-.6-3v.1Z"/>
  <path class="cls-1" d="M242.8,152.8v3.8c0,.4,1.1.3,1.2.7.3,2.1-.8,3.7-1.8,5.6,0-3.2-.5-7.2.6-10.1Z"/>
  <path class="cls-8" d="M239.2,128.5c-1.7.3-1.3-1.5-2.1-2.4s-1.4-.5-1.5-.6c-.2-.2-.4-.3-.6-.6,1.5.7,1.3-1.7,1.2-3,2.1,1.7,2.2,4.2,3,6.5v.1Z"/>
  <path class="cls-12" d="M240.4,134.4v.6l-1.2,5.3c-.4-1.9-.7-4.1-1.2-5.9h2.4Z"/>
  <path class="cls-1" d="M238.6,183.6c-.3,2.2.5,6-2.4,6.5.4-1.9,1.7-4.6,2.4-6.5Z"/>
  <path class="cls-1" d="M242.8,152.2c-1.3-1.4-.3-4.1-.6-5.9.3,2.1.5,4.1.6,5.9Z"/>
  <path class="cls-1" d="M241.6,168.2c0-1.1-.4-2.9.6-3.6,0,1.1.4,2.9-.6,3.6Z"/>
  <path class="cls-15" d="M150.9,58.6h-2.4c-.2-3.2,2.5-3.1,2.4,0Z"/>
  <path class="cls-7" d="M169.8,68.6h1.2l1.2.6h.6l1.2.6c5.9,2.1,13.6,5.3,19,8.3s2.4,1.6,3.6,2.4c1.2,1.2,2.4,3.5,3.5,4.5,2.2,1.9,5.6,4.1,7.8,6.2-.5,2.3,6.1,6.1,7.1,8.3.2.4.4.8.6,1.2,1.2,2.3,1.8,5.1,3,7.7-1.9-1-3.8,3.9-3.6,4.1,1.8-.1,3.6,1.1,1.2,2.4-.1-.1-.9.1-1.2,0-5.1-1.8-2.1,2.3-5.3,3-1-2.3-7.9-11.8-10.1-11.9-1.3-.6-.8-2.4-2.4-1.2l-.4-1.8-8.5-3.5v-.6c-.1-.4-.4-.4-.6-.6s-.4-.4-.6-.6c.6-2.8-1.5-1.3-3.3-2.3s-4-6.1-3.9-7.4,2-.5,1.2-2.1l-7.3-.6c-.9,2.8-3.2,0-4.8,0s-.3,1.7-1.5,1.2c-1.6-.8-2.8-1.8-4.7-2.4-1.3-1.4-5.3-1.9-5.9-3.9s1-.8,1.4-1.5.4-1.8.9-2.7,3.3-5.7,3.6-5.9,6.4-1.5,7.1-1.5h-.1Z"/>
  <path class="cls-15" d="M154.4,65.1h3c3.7.4,9.3,1.7,12.5,3.6-.8,0-6.8,1.3-7.1,1.5s-3.1,5.1-3.6,5.9-.4,2-.9,2.7-1.8.3-1.4,1.5c.7,2,4.6,2.5,5.9,3.9-1-.3-4.9-1.1-5.9-1.2-2.4-1.6-6.1.4-6.5-3.3s0-.7.8-.9,5.5-1,5.6-1.2c.3-.4-.2-2.2.1-3.1s1.7-.8,1.7-1.3c.2-1.7-2.9-3.3-4.2-3.8s-4.7-1.7-6.4-1.6-1.4,1-2.1.9-3.7-1-3.9-1.2c-.3-.2,0-1,0-1.1,2.2-.7,6.5.7,8,.6s.4-1.4,1.3-1.7,2.2,0,3.2,0l-.1-.2Z"/>
  <path class="cls-2" d="M155.6,63.3c.8.2,1.7,1.2,1.8,1.2v.6h-3c-.2-.6-.7-.6-1.2-.6v-1.2c.8,0,1.7-.1,2.4,0Z"/>
  <path class="cls-15" d="M172.2,69.2l-1.2-.6c1,.1,1.1.6,1.2.6Z"/>
  <path class="cls-15" d="M174,69.8l-1.2-.6c.6.2.9.5,1.2.6Z"/>
  <path class="cls-2" d="M159.8,64.5h-.6l.3-.6.3.6Z"/>
  <path class="cls-1" d="M150.9,62.7c1.4-.1,3.8-.4,4.7.6-.7-.1-1.6,0-2.4,0h-3.6c.2-.6.7-.6,1.2-.6h.1Z"/>
  <path class="cls-3" d="M219.7,106.6c.2.5.2,1.3.6,2.4s.3,2.2.6,3c1.6,4.5,3.2,9,4.7,13.6s1.1,2.1,1.2,2.4,0,.4,0,.6c.2.7.6,1.1.6,1.2.1.3,0,.9,0,1.2-.3,1.2-2.2,1.5-3.2,1.2s-.1-1.2-.5-1.6-1.3-.5-1.6-.8c-1.8-4.1-.7-5-3.6-9.5s-.8-2.2-1.8-3-2-.9-2.4,0c.4-.8.7-1.5.6-2.4.3.1,1.1-.1,1.2,0s-.2.8.3,1.2,1.7.4,2,.7,0,3.5,1.8.6,1.5-3.3,1.2-4-1.4-.8-1.6-1.1-.7-2.6-1.3-4c-1.2-2.6-1.8-5.4-3-7.7,2.1,1.5,3.3,3.7,4.2,5.9v.1Z"/>
  <path class="cls-4" d="M222.6,108.3h-.6l-1.8.6c-.4-1.1-.4-1.8-.6-2.4,1.1.2,1.3-.5,1.8-1.2.4,1,.7,2,1.2,3h0Z"/>
  <path class="cls-15" d="M214.9,98.9v.6c-1-2.2-7.6-6-7.1-8.3,2.7,2.5,4.6,5.4,7.1,7.7Z"/>
  <path class="cls-2" d="M401.8,184.2v.6l1.2,3.6c-2.4-.7-1.4,1.4-2.2,1.8-1.2.6-4.2.3-5.7.7-6,1.7-15.9,8.3-20.3,8.7s2.5-2.3,1.5-4.2c.7-.4,1.4-.4,1.8-.6,1,1,1.4.8,1.2-.6,7.9-4,15-6.4,22.5-10.1v.1Z"/>
  <path class="cls-11" d="M402.4,191.3c-6.5,6-15,8.5-23.1,11.3-.3-2,.1-1.4,1.2-2.1,5-3,17.1-8,21.9-9.2Z"/>
  <path class="cls-11" d="M401.8,184.2c1.2-.6,6.6-5,7.6-4.1s0,1,0,1.1c-1.1,2.5-3.9,2.6-2.4,5.3-2.9,2.4-2.8-2.6-5.3-1.8v-.6l.1.1Z"/>
  <path class="cls-5" d="M379.2,194.3c.2,1.4-.2,1.6-1.2.6l1.2-.6Z"/>
  <path class="cls-5" d="M299.7,237.5c.3.9.3,2.4.6,3l-11.3,3.6c-1.9-2,8.9-7,10.7-6.5v-.1Z"/>
  <path class="cls-5" d="M295.6,248.8c.6,3.3-5.3,2-.6,4.1-1.6.8-6,3.1-7.4,3s.8-1.5.9-1.6c2.7-3.3,3.1-3.8,7.1-5.5Z"/>
  <path class="cls-5" d="M296.2,248.8c.2-.2.4-.5.6-.6-.1.2-.3.5-.6.6Z"/>
  <path class="cls-2" d="M313.4,239.3c0,.1,1.7,1.3-.3,1.2l-.3-.6c.1,0,.4-.5.6-.6h0Z"/>
  <path class="cls-9" d="M298.9,231.6c.4.2.4.4,0,.6v-.6Z"/>
  <path class="cls-2" d="M311.3,238.7c.4.2.4.4,0,.6v-.6Z"/>
  <path class="cls-6" d="M222,129.7c.4.3,1.3.3,1.6.8s-.1,1.5.5,1.6c1,.3,3,0,3.2-1.2.4,1.4,1.3,3.1,1.8,4.7,2,6.7,2.9,9.5,3,16.6s-1,12.5-1.2,19,0,.8,0,1.2c-.6.2-.5.7-.6,1.2-.2,1-.3,1.5-.6,2.4-1.6.8-.9,3.3-3,4.1-.2-.2-.8-.2-1.2-.6-.6-2.2,1.5-4.1,1.8-5.7.4-2.4-2-4.3,1.2-3.8,0-1.4-1.3-1.6-1.2-3.2s1.5-2.9,1.7-4.4-.1-5.5.1-7.8,0-.4,0-.6,1.6-1.7,0-2.4v-1.2c0-2.1-.3-3-.6-4.7-1.5-8.9-3.6-9.3-6.5-16h0Z"/>
  <path class="cls-10" d="M179.3,184.2c3.4,1.3,6.6,3.1,10.1,4.1.1,1.5.6,1.2,1.2,1.8,1.2,1.3,4.5,2.9,4.6,3.1.3.5,0,1.2,0,1.7.3,1.6-.3,5.6,2.1,3s0-1.2.3-1.8c.7-1.2,2.2-2.2,2.4-2.4l.6,1.2c-1.2,2.1-2.4,4-3.6,5.9.6-2.5-2.8-.7-2.4,0l1.8.6c-.2.3-.6.9-.6,1.2-1.2-.3-2.6-.3-2.4-1.8-.4-3.2-1.9-2.4-3-3v-2.4h1.2c.5,1.2,2,3.6,2.4.6-1.5.3-1.1-1.5-1.8-2.1s-1-.2-1.2-.3-.7,0-1.2-.3c-1.2-.9-2-3.8-3,.9l1.8.3c-3.2,2.7-2.9-.2-4.1-1.7s-2.1,0-1.8-1.6h1.2c5.5-.3,1.2-1.1-.1-1.9-1.9-1.2-4.6-3.8-5.8-4.6l1.2-.6.1.1Z"/>
  <path class="cls-10" d="M234.5,152.8c-1.2-2.6-.7-5.7-1.3-8.4s-2.7-6.7-3.4-9.3-.3-4.8-.7-6.7c-1.1-4.5-4.7-12-6.4-17s-.8-1.8-.6-3h.6c4.8,10.6,15.5,33.2,11.9,44.4h-.1Z"/>
  <path class="cls-14" d="M210.2,162.9v1.2c0,.4,0,1,.6,1.2v1.8l-.6.6v3c-.1,1.3,0,1.3,1.2,1.2v1.8c-2.7-.8-1.8,2.6-2.4,4.7s-1.3,4.3-1.8,6.5,0,.4,0,.6c-.2.1-.5.3-.6.6s0,.7-.2,1-.7.5-1,.8c-1.5,1.4-1.1,0-2.4,3-2.3,1.1-1.6,1.4-3,3s-1.7,1.2-2.4,2.4c-.6-.2-.6-.7-.6-1.2v-2.4c1.7-.2,3.2-2.6,4.1-3.9,5-8,7.1-17.1,8.4-26.3.4,0,.5.5.6.6l.1-.2Z"/>
  <path class="cls-4" d="M214.9,150.4l.6.6c.8,6.7-1,16.5-2.4,23.1h-1.2l.6.6c-.2.8-.6,1.1-.6,1.2-.9-.4-.6-1.6-.6-2.4v-1.8c-.3-2.2-.9-.8-1.2-1.2s0-2.8,0-3,.8,0,1.2,0c.2-.5-.6-.5-.6-.6v-1.8c0-.5,1.7-1.4-.6-1.2v-1.2c.2.1.7,0,1.2.3s.3,1.6,1.2,1.5c-.5-1.8.6-4.2.5-5.7s-.5-.8-.5-.8c0-1.2,0-3.5-.2-4.3s-1.8-2.7-1-4.5c1.5.3,2.1,1.3,3-.6,0,.2.5,1,.6,1.8h0Z"/>
  <path class="cls-14" d="M213.1,124.3c.8,1.6,1.6,4.1,2.4,5.9s1.4,4.4,2.4,6.5v1.8c-1,.4-2,.9-3,1.2l1.8-2.4-4.7.6c0-1.9-1-2.7-1.2-3.6-.6-3.6.3-4.2.6-6.5s-.7-3.6,1.8-3.6l-.1.1Z"/>
  <path class="cls-1" d="M214.3,117.2c-1.1,2.4,1.2,1.5,1.8,1.8s1.3,2.5,2.1,3l.3-1.8c2.8,4.4,1.8,5.4,3.6,9.5-1.3-1.1-4.4-4.4-5.6-4.7s-.5,1.3-.3,1.8,0,.9.6,1.2v3l-1.2-.6c-.8-1.8-1.6-4.3-2.4-5.9s-1.6-2-2.4-4.1l2.4,2.4c-.6-2.6.3-3.5,1.2-5.3l-.1-.3Z"/>
  <path class="cls-1" d="M229.2,154.6c-.2,2.3.2,5.9-.1,7.8s-1.6,3.1-1.7,4.4,1.3,1.8,1.2,3.2c-3.2-.5-.8,1.4-1.2,3.8s-2.4,3.5-1.8,5.7c-3.9-3.3-3.5-4.9-1.6-9.6s3.3-4.3,4-9.3.5-2.4.5-3.3c0-1.6-1.6-2.9.6-2.6l.1-.1Z"/>
  <path class="cls-4" d="M228,160.5c-.5-2.3-2.5-1.8-3.7-2.9-2.2-2-.4-8.5-.4-11.3,1.9-.8,2.6,1.9,2.8,3.4s-.4,3.5-.5,5.5l3-3v2.4c-2.2-.3-.6,1-.6,2.6s-.4,2.3-.5,3.3h-.1Z"/>
  <path class="cls-10" d="M212,138l4.7-.6-1.8,2.4h-.6c-2.5.8-.7.5-.6,1.8s-.2,3.4,0,4.7l.6.6v1.8c-.8,1.9-1.5.9-3,.6s-.4,0-.6,0l-1.2-8.9h.6c1.8-.2,1.8-.8,1.8-2.4h.1Z"/>
  <path class="cls-2" d="M234.5,152.8c-.5,1.4-.8,1.3-1.8,2.4-.1-.9.4-2.5-.6-3,0-7.1-1-9.9-3-16.6l.6-.6c.7,2.7,2.8,6.5,3.4,9.3s.2,5.9,1.3,8.4l.1.1Z"/>
  <path class="cls-4" d="M217.9,136.8c.3.6.8,1,.6,1.8l1.2-.6c1,5.3,1.6,10.5,1.2,16l-3-15.4v-1.8Z"/>
  <path class="cls-2" d="M197.1,204.4c1.2-.9,2.8,0,3.8-.2s1.3-1.3,1.6-1c1.1,1.3-1.7.9-1.2,2.1s3.8,3.1,5.3,3.3l-1.2,2.4c-1.5-1.4-4.1-3-5.9-4.1-.5-1.7-1-1.6-2.4-2.4v-.1Z"/>
  <path class="cls-10" d="M219.7,138l-1.2.6c.2-.8-.3-1.2-.6-1.8-1-2.1-1.5-4.5-2.4-6.5l1.2.6v-2.4c1.9,2.5,2.4,6.4,3,9.5h0Z"/>
  <path class="cls-5" d="M220.1,169.5c.3.5.1,1.1,0,1.6-4,2.8-7.5-4.1-3.3-3.5s3.1,1.7,3.2,1.9h.1Z"/>
  <path class="cls-12" d="M211.4,177.1s.6.5.4,1.2c-1,2.3-2.3,5.3-4.5,6.5.5-2.3,1.2-4.3,1.8-6.5l2.4-1.2h-.1Z"/>
  <path class="cls-10" d="M232.7,155.2v3.6c-.2,4.1-.4,8.5-1.8,12.4.2-6.5,1.2-12.2,1.2-19,1,.5.5,2,.6,3h0Z"/>
  <path class="cls-12" d="M237.5,153.4v6.5h-1.8c-.1-1.8,0-3.4.5-5.2s-.4-1.6,1.3-1.4v.1Z"/>
  <path class="cls-5" d="M211.4,173.5c0,.8-.3,2,.6,2.4-.1.4-.4.8-.6,1.2l-2.4,1.2c.5-2.2-.3-5.5,2.4-4.7v-.1Z"/>
  <path class="cls-4" d="M221.3,160c.3.5,0,1.6,0,2.3-5.6.5-1.7-4.9,0-2.3Z"/>
  <path class="cls-5" d="M205.4,187.8c-.6.6-.9,2.5-1.3,2.9s-.9,0-1.1,0c-1,2.4-1.5,2.5-2.4,4.1l-.6-1.2c1.4-1.6.7-1.9,3-3,1.2-3,.8-1.6,2.4-3v.2Z"/>
  <path class="cls-6" d="M197.1,204.4c1.3.7,1.9.7,2.4,2.4-1.4-.9-3.1-.6-3.6-3,.6,0,.8.4,1.2.6h0Z"/>
  <path class="cls-15" d="M196.5,201.4l-1.8-.6c-.5-.7,3-2.5,2.4,0-.1.2-.5.4-.6.6h0Z"/>
  <path class="cls-4" d="M229.2,150.4c-1.2-1-.4-3.3-.6-4.7.3,1.8.5,2.6.6,4.7Z"/>
  <path class="cls-1" d="M229.8,175.9c-.5,1.8-1.1,3.6-1.8,5.3-.4.3-1-1-1.2-1.2,2.1-.9,1.3-3.3,3-4.1Z"/>
  <path class="cls-14" d="M214.3,139.8l-.6,1.8c0-1.3-1.9-1,.6-1.8Z"/>
  <path class="cls-1" d="M229.2,154v-2.4c1.6.7,0,2.2,0,2.4h0Z"/>
  <path class="cls-10" d="M216.7,127.9c-.5-.3-.4-.8-.6-1.2.6.2.5.7.6,1.2Z"/>
  <path class="cls-10" d="M230.3,173.5c0-.5,0-1,.6-1.2,0,.5,0,1-.6,1.2Z"/>
  <path class="cls-12" d="M213.1,174.1c-.1.5-.6.6-.6.6l-.6-.6h1.2Z"/>
  <path class="cls-14" d="M214.3,146.9l-.6-.6s.5.1.6.6Z"/>
  <path class="cls-12" d="M206.6,186c0-.3.4-.5.6-.6,0,.3-.3.5-.6.6Z"/>
  <path class="cls-6" d="M209,215l-1.2-1.2,1.2,1.2Z"/>
  <path class="cls-14" d="M215.5,151l-.6-.6s.5.1.6.6Z"/>
  <path class="cls-1" d="M93.9,138.6c-.2,4.2-1.3,7.1-1.8,11s.3,4.7,0,6.8h-1.5c.3-.8.3-3.4-.9-3.6.1,2.1-.2,4.4,0,6.5s0,.4,0,.6c-1.1-1.6-.6-4.5-.6-6.5,0-3.4-.5-7.5.6-10.7v5.9c1.3,0,1-2.4,1.2-3.6.5-2.5.7-5.4,1.2-7.7s.6-2.7,1.5-2.4c1.4.5.4,2.4.3,3.5v.2Z"/>
  <path class="cls-5" d="M93.3,130.3c-.1,1.3,0,1.3,1.2,1.2-1,1.9-2.8,3.5-2.4,5.9-.5,2.3-.7,5.2-1.2,7.7l-1.2-1.2v-.6c.9-.5.6-2,.6-3,0-4.7,1.1-5.9,3-10.1v.1Z"/>
  <path class="cls-4" d="M89.8,143.3v-.6c0-.8-.3-2,.6-2.4,0,.9.3,2.5-.6,3Z"/>
  <path class="cls-4" d="M91.5,158.1c.2.2.4.4.6.6-2.2-.5-1.1,3.9-.8,4.6s1.1.7,1.4,1.2c.5.8,1.1,3,1.2,3.1,1.6,1.5.8-2.8.6-3.6.9,4,3.4,7.2,5,10.7s.6,4.5,2.7,6.5c-.6-.3-1.1-.5-1.8-.6v-.6c-.2-.6-.6-1-1.2-1.2-1-1-1.8-2.2-3-3-1.4-3.7-4-7.5-5.4-11.4s-.9-3-1.1-4.6,0-.4,0-.6c.2-1,1.7-1.1,1.8-1.2v.1Z"/>
  <path class="cls-15" d="M86.2,154.6c.3,1.8-.5,2.6-2.4,2.4-.4-1.1,1.9-2.9,2.4-2.4Z"/>
  <path class="cls-15" d="M94.5,183c.6.6-.5,1.8-1.2,1.2s.5-1.8,1.2-1.2Z"/>
  <path class="cls-15" d="M129.5,90.6c.3.2.1,2.5,2.4,1.8l-.6-1.8c1.8.6,2.7,1,4.7,1.2v1.8c-2.7-.2-5.1.6-7.1,2.4h-.6c-1.4,0-4-.8-4.1-.6s.2,1.1-.2,1.6-1.6.6-2,2,1,2.2-.8,3c-.5-.9-1.1-5-1.3-5.2-.3-.5-3.3-.7-4.1-1.3,2.4-1.3,2.9-1.9,5.9-2.4s3.4.8,3-1.2h.6c3.9-.4,1.8-.3,3-1.2s1.1,0,1.2,0v-.1Z"/>
  <path class="cls-8" d="M124.8,102.4c-2,.7-4.1,2.9-5.9,3.6s-4.2-.4-3.6,3c-1.4,0-1.3-1.3-3.6-.6v-.6l1.2-1.2c.4-.2.8-.4,1.2-.6,1.3-.7,1.7-.6,3-1.8,2.5-.9,5.4-2.3,7.7-3.6h.6s-.6,1.8-.6,1.8Z"/>
  <path class="cls-8" d="M130.1,90l-.6.6h-1.2l-3,1.2h-.6c-1.2.1-2.3,0-3,1.2-3,.5-3.5,1.1-5.9,2.4s-1.9.6-3,1.2l-1.5-.6c4.4-1.7,11.6-6.3,16.3-6.5,4.7-.2,1.2.5,2.4.6l.1-.1Z"/>
  <path class="cls-15" d="M108.1,109.5c-1,.8-1.2,2.4-3.6,1.8,0,0-.7-.4-.6-.8.3-1.3,3-1,4.1-.9l.1-.1Z"/>
  <path class="cls-1" d="M128.3,95.9l-1.8,1.8,2.4,1.2c-2-.1-3.1,1.2-4.2,1.8-2.3,1.3-5.2,2.7-7.7,3.6.3-.2.3-1.3.7-1.6.9-.6,2.6-.4,3.4-.8,1.9-.8.5-1.8.8-3s1.5-1.4,2-2,0-1.5.2-1.6,2.7.6,4.1.6h.1Z"/>
  <path class="cls-6" d="M111.7,107.7v.6c-2.2.6-5.4,3.7-7.1,5.3v-2.4c2.4.6,2.6-1,3.6-1.8s1.4-1.2,2.4-1.8h1.2l-.1.1Z"/>
  <path class="cls-15" d="M117,104.2c-1.3,1.2-1.7,1.1-3,1.8,0-2.4,1.9-1.4,3-1.8Z"/>
  <path class="cls-1" d="M107,100c.2,1.1-.1,1.4-1.2,1.2.4-.5-.7-.6,1.2-1.2Z"/>
  <path class="cls-15" d="M90.4,112.5c1.8-.4,1.9,1.5,0,1.2v-1.2Z"/>
  <path class="cls-15" d="M112.9,106.6l-1.2,1.2h-1.2c1.1-.7,1.7-.8,2.4-1.2Z"/>
  <path class="cls-15" d="M116.5,197.8c3.8,1.8,7.5,3.5,11.9,2.4,2,3.3,6.1,6.9,10.3,5.9s.2-1.6,1.9-1.2,1,2.7,3.3.6c1.4.7,4.9,2,6.5,2.7s7.4,1.8,7.7,2.1,0,1.7,0,1.8c-.2.2-1.9-.6-2.7-.6s-2.9.9-3.3.6.3-1.6-1.2-1.2h-.6c-2.1-2.2-6.7-3.2-9.5-1.8h-.6c-3.5,0-7.9.4-11.5.6-.7-1.6-2-1.1-3.5-2-2.4-1.5-4.3-3.7-6.5-5.4s-7.2-3.6-5.3-5.7,2.4.9,3,1.2h.1Z"/>
  <path class="cls-10" d="M102.2,181.2c4.5,2.3,8.5,9.1,12.4,12.2s2.7,1.3,3.8,2.1,1.7,2.7,3.9,3.2,1.3-2.8,3.6-2.7c-.2,1-1,2.6.3,3s.7-.6.9-.6c1.9-.3.9.9,1.2,1.2v.6c-4.4,1.1-8.1-.6-11.9-2.4,1.7-2.5-1.4-2.1-2.7-2.9s-2.5-3.4-3.2-3.9-1.6.4-1.8.3c-1.5-.3-5.6-4.6-6.5-5.9s-1.3-3.1-1.8-4.7c.6,0,1.2.3,1.8.6v-.1Z"/>
  <path class="cls-6" d="M108.7,191.3l2.4,3.6c-5,1-4.9-6.1-9.5-7.1.1-.7-.4-1.9.6-2.4.9,1.4,5,5.7,6.5,5.9Z"/>
  <path class="cls-4" d="M143.1,209.1l-1.2.9c0,.5,1.7,0,1.2,1.5-1.4,0-2.5-.5-3.6-.6l.6-1.8h3Z"/>
  <path class="cls-4" d="M137.8,210.9h-1.2l.9-.6.3.6Z"/>
  <path class="cls-10" d="M100.4,180.1c-.7-.2-.8-.8-1.2-1.2.6.2,1,.6,1.2,1.2Z"/>
  <path class="cls-1" d="M131.3,87l-1.2,1.8h-.6c-.3,0-.5.3-.6.6h-1.2s-.2-1.4-.6-1.8c1.9-.7,2.7-.3,4.2-.6Z"/>
  <path class="cls-14" d="M102.2,98.3l-.6-.3c.4-.7,1.2-1,1.8-1.5.1,1.2-.7,1.3-1.2,1.8Z"/>
  <path class="cls-1" d="M125.9,88.2s.6.3.6.6l-2.4-.6c.5-.1,1.2,0,1.8,0Z"/>
  <path class="cls-8" d="M106.4,95.9c-.2.2-.5,1.1-.9,1.2s-.3-.6-.3-.6c0,0,1.2-.6,1.2-.6Z"/>
  <path class="cls-1" d="M128.3,199.6c.6.6,3.5,2.3,4.2,1.8l-.6-1.8h1.2c-.3,2.4.4,1.4,1.2,1.8,2.3.9,5.4,1.6,7.7,1.8-.4.6,1.4,2.2,1.8,2.4-2.2,2.1-3.1-.6-3.3-.6-1.7-.4-1.3,1.1-1.9,1.2-4.1,1-8.3-2.6-10.3-5.9v-.7Z"/>
  <path class="cls-1" d="M150.3,210.9h-2.4c0-.3.1-1.1,0-1.2-.2-.1-4-.5-4.7-.6s-1.6,0-2.4,0c2.8-1.5,7.4-.4,9.5,1.8Z"/>
  <path class="cls-12" d="M146.1,212.1c-.2.6-.7.6-1.2.6.2-.6.7-.6,1.2-.6Z"/>
  <path class="cls-12" d="M143.1,212.6h-.6s.3-.4.6,0Z"/>
  <path class="cls-12" d="M143.1,209.1c.7,0,4.6.5,4.7.6s0,.9,0,1.2c-1.6.1-3,.6-4.7.6.5-1.4-1.1-1-1.2-1.5l1.2-.9h0Z"/>
  <path class="cls-6" d="M141.4,65.7c.4.2.4.4.6.6s-.2.9,0,1.1,3.7,1.2,3.9,1.2c.7,0,1.2-.9,2.1-.9,1.7,0,4.7.9,6.4,1.6-1.8-.6-5.3.5-7.1.6s-3.3.5-4.2.6c-2,.1-5.3-1.4-8.9-1.2-.8-.8-3.7-.1-4.7.6-.4,0-.9.6-1.2.6h-1.8c0-.3-.3-.5-.6-.6s-.8,0-1.2,0c0,0-.7-.1-.6-.6,3.3.7,1-2.2,1.2-2.4.4-.3,4,.2,5.1,0s1.3-.6,1.4-.6c2.5-.4,4.8.4,6.1,0s.2-2,3.4-.6h.1Z"/>
  <path class="cls-1" d="M153.2,64.5c.5,0,1,0,1.2.6-1,0-2.3-.2-3.2,0s-.8,1.7-1.3,1.7c-1.5.1-5.8-1.3-8-.6-.2-.2-.2-.4-.6-.6,3-1.8,8.3-1.4,11.9-1.2v.1Z"/>
  <path class="cls-1" d="M126.5,70.4c-.3,0-.5-.3-.6-.6.3,0,.5.3.6.6Z"/>
  <path class="cls-8" d="M143.7,193.1s-.2.8-1,1.1-2.1-.1-2.5.2,0,1.5,0,1.7-1.3,0-2.1.6c-3,2.3-.3,2.5-5,3s-.8,0-1.2,0l.6,1.8c-.7.5-3.5-1.1-4.2-1.8s.8-1.5-1.2-1.2l2.1-4.1,1.8,2.4c.5-2,2.7-1.2,3.9-1.8,1.6-.2.1,2.5,1.5,1.8s2.3-2.2,2.1-3.6c2.1.4,3.6-1.2,5.3-1.8v1.8l-.1-.1Z"/>
  <path class="cls-10" d="M172.2,188.9l-1.8.9c-.4,1.3,1.4.8,1.8,2.1-3.4-1.3-6.1-1.3-9.5-1.8s-6.3-1.6-9.5-1.2c-3.2-.4-.1-1.3,1.2-2.4,6.9-.8,11.2.4,17.8,2.4Z"/>
  <path class="cls-1" d="M168.1,193.1c1,.2,6.8,1.4,7.1,1.2s-.1-1,0-1.2.9.1,1.2,0v1.2c0,3.4,2,1.9.6,0,5.7,1.6.4,2,0,2.4s1.3,5.6-1.2,5.3c-.2-3.7-3.5-3-4.7-5.3s.3-1.2,0-1.7-2.6-.5-2.9-1.9h-.1Z"/>
  <path class="cls-1" d="M159.2,202c.4,0,.9.1,1.4,0s-.2-1.7,2.2-.9,4.6,3.9,4.7,4.2c.6,1.5-4.1.5-4.7,2.1-3-.3-2.1-2.2-3.2-3s-3.1-1.1-3.3-1.1c.5-1.6,1.9-1,3-1.2l-.1-.1Z"/>
  <path class="cls-4" d="M154.4,186.6c-1.3,1.1-4.4,2-1.2,2.4-2.6.4-7,1.5-9.5,2.4s-3.2,2.2-5.3,1.8h-.6c6.4-3.9,8.5-5.5,16.6-6.5v-.1Z"/>
  <path class="cls-4" d="M161.5,191.3c.9,0,4.7,1.4,6.5,1.8.2,1.4,2.5,1.4,2.9,1.9s0,1.4,0,1.7c-2.5-1-5.3-.8-7.7-1.4s-2.6-1.3-3.5-1.5l-1.8-.6h-.6v-1.2c1.4,0,3.4-.6,4.2-.6v-.1Z"/>
  <path class="cls-8" d="M172.2,191.9c.8.3,1.8,1.3,3,1.2-.1.1.1,1.1,0,1.2-.3.2-6.2-1-7.1-1.2-1.9-.3-5.6-1.7-6.5-1.8,1.3.1,1.3,0,1.2-1.2,3.4.5,6.1.5,9.5,1.8h-.1Z"/>
  <path class="cls-12" d="M143.7,193.1c1.2-.4,2.9-.5,4.2-.6.7.5-7.2,3.8-7.7,4.1v-.6c.1-.2-.3-1.4,0-1.7s1.7,0,2.5-.2.9-1,1-1.1v.1Z"/>
  <path class="cls-5" d="M140.2,196.1v.6c-1.9,1.2-3.5,3.9-5.9,4.7-.8-.3-1.5.6-1.2-1.8,4.8-.5,2-.7,5-3s2-.5,2.1-.6v.1Z"/>
  <path class="cls-5" d="M157.4,191.9v1.2c-1.8-.3-4.3.6-5.9-.9,0-.5,5-.3,5.9-.3Z"/>
  <path class="cls-1" d="M153.8,203.2h-3.6c.6-1,3-1,3.6,0Z"/>
  <path class="cls-5" d="M159.8,193.7c-.8-.2-1.7-.6-1.8-.6l1.8.6Z"/>
  <path class="cls-8" d="M182.9,191.3c-.2,1.5,1.3,1,1.8,1.6,1.3,1.4,1,4.3,4.1,1.7l-1.8-.3c1-4.7,1.7-1.8,3-.9s1,.2,1.2.3c0,.7.4,1.2.6,1.8h-1.2c-2.2,0-1.1,1.8,0,2.4s2.6-.2,3,3l-14.2-8.9.6-1.2c1.3.5,1.7.5,3,.6l-.1-.1Z"/>
  <path class="cls-6" d="M178.7,191.9c-.6,0-1.7.9-2.4,1.2s-1.1-.1-1.2,0c-1.2.1-2.1-.9-3-1.2-.4-1.3-2.2-.8-1.8-2.1l1.8-.9c2.3.7,5.1.6,6.5,3h.1Z"/>
  <path class="cls-6" d="M177,194.3c1.4,1.9-.6,3.4-.6,0h.6Z"/>
  <path class="cls-6" d="M163.9,90.6c.9.4,1.6.7,2.4,1.2,1.8,1,6.3,3.5,4.2,5.6.7,0,1.2.2,1.8.3,2.6,2.5,6.4,4.1,9.5,5.9s1.1.2,1.8-1.2.6-2.4,1.8-3c1,.4,1.8,1.1,3,1.2v.6c.5,2.1,1.2,2,1.2,2.1.1.9-.8,1.9-.7,2.8s3.4,2.3,0,2.7c-.3-.2-1.8.1-2.4,0,1.4-4.3-1-2.7-1.2.6l-11.9-8.6c-.5-.5-1.4-.2-1.7-.3s-.4,0-.6,0c-1-2.1-3.9-2.7-5.9-3-2.7-1.4-.3-2.1.8-3s-3.9-2.5-4.4-2.6-1.7.4-1.8.2c-1.8-1.9,3.8-1.1,4.1-1.8v.3Z"/>
  <path class="cls-1" d="M154.4,69.2c1.3.5,4.4,2.1,4.2,3.8s-1.5.5-1.7,1.3.2,2.8-.1,3.1-4.6.8-5.6,1.2-.9-.4-.8.9c.4,3.7,4.1,1.7,6.5,3.3-9.3-.9-22.3.7-31.4,3-.5-1.3,2.8-2.1,3.4-2.2,3.1-.6,12.5-.3,13.2-4.6s-1.6-.7-2.4-.9c0,0-.1-.5.9-.6,3.4-.2,6.2,1.4,10.4,0s4.1-2.9,4.2-4.4-3.4-.2-3.6-.3,0-.9,0-1.2v-.6h4.2s-1.1-1.7-1.2-1.8h-.2Z"/>
  <path class="cls-15" d="M167.5,86.4c1.2.5,1.2-1.2,1.5-1.2,1.6,0,3.9,2.8,4.8,0l7.3.6c.8,1.6-1.2,1.9-1.2,2.1-.1,1.3,2.5,6.6,3.9,7.4s3.8-.5,3.3,2.3c-2.1-1.4-5.2-3-7.1-4.7s-2.7-3.7-2.9-3.9c-.9-.7-4,0-5.5-.4s-2.8-1.6-4-2.2h-.1Z"/>
  <path class="cls-1" d="M158.6,89.4h1.2c1.2.2,3,.7,4.2,1.2-.3.7-6-.2-4.1,1.8s1.2-.4,1.8-.2,5.6,1.7,4.4,2.6-3.6,1.5-.8,3h-1.2c-1.1-.5-3.2-1.5-4.2-1.8,2.6.8,4.3-1,1.9-2.4s-8.8-3.3-9.5-3.5c-1.2-.2-3.3.4-4.9.5.8-1.9,3.7-1.1,5.6-1.2s.8-.6.9-.6c1.7,0,3.1.4,4.7.6h0Z"/>
  <path class="cls-1" d="M150.9,84.6l1.2,2.4c-3.1,0-6.5-.2-9.5,0s-.8,0-1.2,0l-1.2.6c-2.2.2-5,.3-7.1.6l-.6-1.8c3.9-.6,8.6-1.1,12.5-1.2s5.4,1.3,4.7-.6h1.2Z"/>
  <path class="cls-12" d="M187,97.7c.2.2.4.4.6.6l.6.6v.6c0,.2-.1.4,0,1.2-1.1,0-2-.8-3-1.2-1.8-.8-7.1-2.5-8-3.5s-.5-1.4.6-1.2c1.7.3,3.7,2.8,5.6,3l-3.6-4.1v-.6c1.9,1.7,5.1,3.3,7.1,4.7l.1-.1Z"/>
  <path class="cls-5" d="M152,87c2.4,0,4.7.6,7.1,0,.1.4,0,1.2,0,1.8l-.6.6c-1.6-.2-3-.6-4.7-.6-3.5-1.7-7.5-.2-11.3-.6v-1.2c3-.2,6.4,0,9.5,0Z"/>
  <path class="cls-12" d="M159.2,87c-2.4.6-4.7,0-7.1,0l-1.2-2.4c1.2.1,8.1,1.8,8.3,2.4Z"/>
  <path class="cls-6" d="M132.5,86.4l.6,1.8c-.8.1-1.8.4-3,.6l1.2-1.8c.2,0,.6-.5,1.2-.6Z"/>
  <path class="cls-12" d="M149.7,84.6c.6,1.9-2.6.5-4.7.6.9-1,3.3-.7,4.7-.6Z"/>
  <path class="cls-10" d="M175.2,92.3c.2,0,1.3-1.8,1.2.6-.2.1.3,1.2-.3,1.2,0,0-.9-1.8-.9-1.8Z"/>
  <path class="cls-1" d="M124.8,85.8l-1.2.6s.4-.4,1.2-.6Z"/>
  <path class="cls-1" d="M123,86.4l-1.2.6c.2,0,.6-.4,1.2-.6Z"/>
  <path class="cls-12" d="M159.8,89.4h-1.2l.6-.6c0,.1.5.4.6.6h0Z"/>
  <path class="cls-12" d="M178.7,93.5l-.6-.6c.4,0,.6.6.6.6Z"/>
  <path class="cls-6" d="M206.6,216.3c1.4,2.2-2.6,2.7-2.3-.7.2-.2,2.2.6,2.3.7Z"/>
  <path class="cls-4" d="M150.9,71c.1.2.6.4.6.6,0,.3-.1,1.1,0,1.2s3.6-.9,3.6.3-2.9,4-4.2,4.4c4.8-5-1.2-2.5-3.7-3.1s-1.7-1.7-2.2-2.2c.3-.8,1.2-.5,1.8-.6,1.4-.2,2.7-.5,4.2-.6h-.1Z"/>
  <path class="cls-4" d="M134.8,72.8c.5.2,1.7-.2,2.5.1s2.9,1.4,3.4,2.2c-2.4.2-4-.9-6.5-1.2l.6-1.2v.1Z"/>
  <path class="cls-5" d="M147.3,69.8l-2.4.6c-.2,1,1.1.4,1.8,1.2-.6,0-1.5-.2-1.8.6,0,0-.9.2-1.1,0-.4-.5,1.7-2.1-.6-1.7.9,0,2.6-.5,4.2-.6l-.1-.1Z"/>
  <path class="cls-1" d="M134.2,69.2c-1,0-3.4.4-4.7.6,1-.7,3.9-1.4,4.7-.6Z"/>
  <path class="cls-1" d="M188.2,101.2c2,.3,1.7,1.7,2.7,3s1.2.4,1.4.7c.9,1.5-1.4,3.3,3.1,3.4v-3c1.2-.2,1.8.9,2.8,1.1s1.3-.5,1.3-.5c2.2,0,9.1,9.6,10.1,11.9s.5,1,.6,1.8-.5.4-.3,1.2c.4,2.3.6,5,1.5,7.1-.3,2.3-1.2,3-.6,6.5h-2.4l1.8,5.9h-.6c-.3,0-1-.8-1.2-.6,0,1-.1,2,0,3-1.1,1.8-.4-2.2-.6-2.4s-2.1.3-3-.3-1.4-2.6-1.8-3.3c-1.4-3-2-6.3-3.6-9.5,3.3.2,2.1,4.4,2.4,4.7.9,1,8.8-2.2,8.3-4.5l-7.2-10.1c-.3-.3-3.9-2.6-4.2-2.7,3.7-2.1-4.7-7.4-3.6-3.3s3.8,1.2,3,3.3c-4.1-1.5-1,1.2-4.1,1.8.2-1.7-1.6-1.2-2.2-1.9s-2.8-5.6-3.1-5.8c3.4-.4,0-2.6,0-2.7,0-.9.8-1.9.7-2.8s-.7,0-1.2-2.1v.1Z"/>
  <path class="cls-2" d="M188.2,99.5l8.5,3.5.4,1.8c1.5-1.2,1.1.6,2.4,1.2,0,0-.5.7-1.3.5s-1.7-1.3-2.8-1.1v3c-4.4-.2-2.2-1.9-3.1-3.4s-1.1-.4-1.4-.7c-1-1.3-.7-2.7-2.7-3v-.6c-.1-.8,0-1.1,0-1.2h0Z"/>
  <path class="cls-15" d="M218.5,108.3c.6,1.4,1.2,3.8,1.3,4s1.4.3,1.6,1.1-.8,3.3-1.2,4c-1.9,2.8-1.5-.3-1.8-.6s-1.4-.3-2-.7-.2-1.1-.3-1.2c2.4-1.3.6-2.5-1.2-2.4-.2-.2,1.6-5.1,3.6-4.1v-.1Z"/>
  <path class="cls-15" d="M214.9,114.9c0,.9-.2,1.6-.6,2.4-.8,1.8-1.8,2.7-1.2,5.3l-2.4-2.4c0-.2-.4-.4-.6-.6-.1-.8-.3-1.1-.6-1.8,3.2-.7.2-4.7,5.3-3l.1.1Z"/>
  <path class="cls-2" d="M188.2,98.9l-.6-.6c.2.2.4.2.6.6Z"/>
  <path class="cls-2" d="M222,108.3c-.2,1.2.3,2,.6,3l-1.8.6c-.3-.8-.2-2-.6-3l1.8-.6Z"/>
  <path class="cls-8" d="M222.6,111.3c1.7,5,5.3,12.6,6.4,17,1.1,4.4.2,4.7.7,6.7l-.6.6c-.5-1.6-1.4-3.3-1.8-4.7s.1-.9,0-1.2l-.6-1.2v-.6l-1.2-2.4c-1.5-4.6-3.1-9.1-4.7-13.6l1.8-.6h0Z"/>
  <path class="cls-4" d="M179.9,190.7c-.4-.1-1.5-2.1-3.6-1.2,0-1.9.4-3.6,2.6-3s.7,1.9,1.6,2.7,2.7.9,3.5,2.1h-1.2c-1.3-.1-1.7-.1-3-.6h.1Z"/>
  <path class="cls-5" d="M179.3,184.2l-1.2.6c-.2,0-2.6-.6-3.4-1s-1.6.3-1.3-1.3c2.4-.4,4.2,1.1,5.9,1.8v-.1Z"/>
  <path class="cls-4" d="M192.4,186.6c-.7,1.1-1.5,2.3-1.8,3.6-.6-.6-1.1-.3-1.2-1.8s.3-1.1.6-1.8h2.4Z"/>
  <path class="cls-2" d="M197.1,194.9c0,.5,0,1,.6,1.2-.3.6-.1,1.6-.3,1.8-2.4,2.6-1.7-1.3-2.1-3h1.8Z"/>
  <path class="cls-14" d="M191.2,193.7c.2.1.8,0,1.2.3.7.6.2,2.3,1.8,2.1-.4,3-1.8.6-2.4-.6s-.6-1.1-.6-1.8Z"/>
  <path class="cls-4" d="M190.6,195.5v2.4c-1.1-.6-2.2-2.4,0-2.4Z"/>
  <path class="cls-10" d="M198.3,134.4c2.1.4,1.4,2.3,3.8,3.7s.8-.4,1-1.3c.3.7,1.4,3.1,1.8,3.3.9.6,2.8.1,3,.3s-.5,4.1.6,2.4c.3,2.1,1,4,1.2,6.5s-.1,1.7,0,2.4.3.5.6.6c.1,1.1.7,5.8.6,6.5s-1,2.4-1.2,3.6c-1.3,9.2-3.4,18.2-8.4,26.3s-2.4,3.8-4.1,3.9c.6-4,4-8.5,5.6-12.5,4.5-10.8,5.1-21.7,3.3-33.2-2,1.1-1.7-.5-3.6-1-.1-2-1.8-4-2.3-5.6s0-1.6-.6-3-.8-1.9-1.2-3l-.1.1Z"/>
  <path class="cls-5" d="M212.5,158.1s.5.3.5.8c0,1.5-1.1,3.8-.5,5.7-.9.2-.6-1-1.2-1.5s-1-.2-1.2-.3-.2-.6-.6-.6c.2-1.2,1.1-3.1,1.2-3.6l1.8-.6v.1Z"/>
  <path class="cls-5" d="M210.2,164.1c2.3-.2.6.8.6,1.2-.6-.2-.5-.7-.6-1.2Z"/>
  <path class="cls-5" d="M210.2,170.6c.3.4.9-1,1.2,1.2-1.3.1-1.3,0-1.2-1.2Z"/>
  <path class="cls-5" d="M210.8,167s.7.1.6.6h-1.2l.6-.6h0Z"/>
  <path class="cls-8" d="M210.8,149.2h.6c-.8,1.8.9,3.5,1,4.5s.1,3.1.2,4.3l-1.8.6c0-.8-.4-5.4-.6-6.5s-.3-.5-.6-.6c-.1-.7,0-1.6,0-2.4h1.2v.1Z"/>
  <path class="cls-6" d="M210.8,134.4c.1.8,1.2,1.7,1.2,3.6s0,2.2-1.8,2.4l-1.8-5.9h2.4v-.1Z"/>
  <path class="cls-12" d="M210.8,120.2c.8,2.1,1.6,2.6,2.4,4.1-2.4,0-1.6,2-1.8,3.6-.9-2.1-1.1-4.8-1.5-7.1s.4-1.1.3-1.2c.2.2.5.4.6.6Z"/>
  <path class="cls-8" d="M218.5,120.2l-.3,1.8c-.7-.4-1.7-2.8-2.1-3l.6-1.8c1,.8,1.2,2,1.8,3Z"/>
  <path class="cls-12" d="M216.7,117.2l-.6,1.8c-.6-.3-2.9.6-1.8-1.8s1.6-.6,2.4,0h0Z"/>
  <path class="cls-12" d="M209.6,140.3l1.2,8.9h-1.2c-.2-2.5-.9-4.4-1.2-6.5s0-2,0-3c.1-.2.9.6,1.2.6Z"/>
  <path class="cls-15" d="M185.3,109.5c.2-3.3,2.6-4.9,1.2-.6.6.1,2-.2,2.4,0s2.6,5.2,3.1,5.8,2.5.3,2.2,1.9c3.1-.5,0-3.3,4.1-1.8s.4,0,.6,0c.3.1,3.9,2.4,4.2,2.7l7.2,10.1c.5,2.2-7.4,5.4-8.3,4.5s.9-4.5-2.4-4.7c-2.1-4.2-4.3-6.2-7.1-9.5s-1.5-2.6-2.4-3.6c-1.3-1.4-3.1-2.3-4.2-3.6l-.6-.6v-.6h0Z"/>
  <path class="cls-12" d="M150.9,93.5v.6c-.4,0-4.5.5-4.9.6-.9.2.5.9-3.1,1.3s-5,.6-7.4,1.6c-.5,2.2,2,.8,2.4,1.2s0,2-1,2.3c-3,1-1.9-2.1-3-2.3-2.4-.6-5.9,2.2-8.5,1.8h-.6c1.1-.6,2.2-1.9,4.2-1.8l-2.4-1.2,1.8-1.8h.6c3-.2,5.9-1.5,8.9-1.8,4.2-.4,8.8-.2,13-.6v.1Z"/>
  <path class="cls-10" d="M193.6,127.9c2.2,3.3,3.4,5.8,4.7,9.5s.9,2.1,1.2,3,0,1.2,0,1.8.3.5.6.6c.4.9.4,2,.6,3l.6,1.8v1.2h-1.8c.5-1.4,1.3-2-.6-1.8v-.6l-.6-.6c-.4-4.3-5.3-11.3-5.9-14.8s-.4-3.5,1.2-3v-.1Z"/>
  <path class="cls-7" d="M147.3,90.6c1.6,0,3.7-.7,4.9-.5s8.8,3.1,9.5,3.5c2.4,1.4.7,3.2-1.9,2.4-1.8-.6-7.2-1.8-8.9-1.8v-.6l-6.5-.6c-.2-2.6,2.3.3,2.4-2.4h.6-.1Z"/>
  <path class="cls-8" d="M199.5,127.3c1.5,3.1,2.1,6.5,3.6,9.5-.2.9.8,2.2-1,1.3s-1.6-3.3-3.8-3.7c-.5-1.2-.8-3.2-1.2-4.1,3.5,2.3.7-2.4-.6-3v-1.2c-.1-.4-.6-.5-.6-.6-.9-2-2.3-3-3-4.7s.2-2.1-.6-3c2.8,3.3,5.1,5.3,7.1,9.5h.1Z"/>
  <path class="cls-4" d="M185.3,109.5v.6c0,.3.4.4.6.6,1.1,1.2,2.9,2.1,4.2,3.6l-2.4-.3c.5,2.3-.9,2.6-3,2.6-1.3-3.9,1.9-8.5-3.9-8.9s-.5,1.7-1.7,1.2c-2-.9-6.4-6.2-7.4-8.3.3.1,1.3-.1,1.7.3l11.9,8.6h0Z"/>
  <path class="cls-5" d="M142.6,181.2l2.4.6c-.5.2-2,1.1-2.9,1.6-1.3.6-8.9,5.6-9.6,5,1.8-4.6,6-5.7,10.1-7.1v-.1Z"/>
  <path class="cls-4" d="M200.7,162.9c.4.4-.2,4.8-.4,5.8s-1.5,5-3.2,4.8c-.3-.4,1-8.7,1.3-9.7s1.9-1.3,2.3-1v.1Z"/>
  <path class="cls-12" d="M189.4,123.2c.8.9,2.3,1.7,2.4,1.8.2.2.4.4.6.6.2.3.7,1.6,1.2,2.4-1.6-.6-1.4,1.6-1.2,3-1.6-1.5-2.4-3.3-3-5.3s-.5-1.3-.5-2l.5-.4v-.1Z"/>
  <path class="cls-12" d="M193,120.8c.6,1.7,2,2.8,3,4.7l-.6.6h1.2v1.2c-.3-.1-.8,0-1.2,0-.2-.2-2.9-1.6-3-1.8-.2-.2-.4-.4-.6-.6-.3-.4-2-4.5-1.8-4.7l3,.6h0Z"/>
  <path class="cls-4" d="M165.5,179c.5.4,1.9,2.6.5,2.8s-6.8-1.5-6.8-4.1c.3-.3,5.6.8,6.4,1.4l-.1-.1Z"/>
  <path class="cls-4" d="M94.5,131.5c.5-.9.9-3.8,2.4-2.4s-.5,4-.8,4.9l-2.2,4.6c0-1.2,1.1-3-.3-3.5s-1.2,1.3-1.5,2.4c-.4-2.4,1.3-4,2.4-5.9v-.1Z"/>
  <path class="cls-10" d="M92.1,158.7c1,.7,2,3.8,2.4,5.3s1,5.1-.6,3.6-.7-2.3-1.2-3.1-1.1-.5-1.4-1.2-1.4-5.1.8-4.6Z"/>
  <path class="cls-4" d="M120,106.6l-.6.6h-.6v-1.2c1.9-.7,4-2.9,5.9-3.6,4.9-1.7,2.3,2-1.2,3.3s-2.3,0-3.6.9h.1Z"/>
  <path class="cls-4" d="M165.1,97.7c2.1.3,5,.9,5.9,3-1.3-.5-2.4-1.1-3.6-1.8.6.9-2.4,4.3-3,3.6s1.6-3.6,1.2-4.1-1.2-.3-1.8-.6h1.2l.1-.1Z"/>
  <path class="cls-12" d="M195.3,180.6c-.9,2.4-1.7,3.7-3,5.9h-2.4c.4-.7,2.5-4.6,2.7-4.8.9-.9,2.3,0,2.1-1.8l.6.6v.1Z"/>
  <path class="cls-5" d="M189.4,123.2l-.5.4c0,.7.3,1.4.5,2-2.2,0-1.8-2.1-2.5-3.2s-1.5-.6-1.7-1.8c-.8-4.6,3.8,2.2,4.2,2.6Z"/>
  <path class="cls-4" d="M103.1,121.1c-2,3-3.9.9-2.6-1.4s3.7-1.7,4.3-2.5c-.3,1.1-1.1,2.9-1.7,3.9Z"/>
  <path class="cls-11" d="M198.9,146.9c1.9-.2,1.1.4.6,1.8h1.8c0,1.7.2,3.7-.3,5.3-2-1.8-1.5-5.2-2.1-7.1Z"/>
  <path class="cls-12" d="M149.7,179.5v.6c-1.2.3-3.6,1.3-4.7,1.8l-2.4-.6c2.8-.9,4.5-1.1,7.1-1.8h0Z"/>
  <path class="cls-5" d="M149.7,179.5c.8-.2,6.5-3.7,5.9-.3-2.3,0-3.7.3-5.9.9v-.6h0Z"/>
  <path class="cls-11" d="M118.8,106v1.2c-.8.4-1.5,1.9-3.6,1.8-.6-3.3,1.1-2.1,3.6-3Z"/>
  <path class="cls-5" d="M137.8,193.1h.6c.2,1.4-1,3-2.1,3.6s0-1.9-1.5-1.8c.7-.4,2.1-1.3,3-1.8Z"/>
  <path class="cls-12" d="M89.8,159.3c-.2-2.1.1-4.4,0-6.5,1.1.2,1.1,2.7.9,3.5h1.5c0,.6-.2,1.4-.6,1.8s-1.6.2-1.8,1.2Z"/>
  <path class="cls-5" d="M194.8,180.1s-.5-.2-.5-.4c0-1.2.6-3.4,2.3-3.2.7,2-.8,3.1-1.2,4.1l-.6-.6v.1Z"/>
  <path class="cls-2" d="M199.5,137.4c.5,1.4.4,2.4.6,3h-.6c-.2-.8-.8-2-1.2-3h1.2Z"/>
  <path class="cls-11" d="M201.3,147.5l-.6-1.8c0,.2.5.6.6,1.8Z"/>
  <path class="cls-11" d="M120,106.6l.6.6c-.4,0-.9-.1-1.2,0l.6-.6Z"/>
  <path class="cls-11" d="M198.9,146.3c0-.1-.5-.3-.6-.6l.6.6Z"/>
  <path class="cls-2" d="M200.1,142.7c-.3,0-.6-.3-.6-.6.2.2.5.3.6.6Z"/>
  <path class="cls-4" d="M90.9,145.1c-.2,1.1,0,3.5-1.2,3.6v-4.7l1.2,1.2v-.1Z"/>
  <path class="cls-6" d="M146.7,90.6c0,2.7-2.6-.3-2.4,2.4l6.5.6c-4.3.4-8.9.1-13,.6-.6,0-1.4-.6-1.8-.6v-1.8c2.3.2,3.7-.4,5.3-.6s3.5-.4,5.3-.6h.1Z"/>
  <path class="cls-1" d="M132.5,90c2,.2,3,.9,4.7,1.2s2.8-.1,4.2,0c-1.7.2-3,.8-5.3.6s-2.9-.6-4.7-1.2l.6,1.8c-2.3.7-2.1-1.5-2.4-1.8l.6-.6h2.4-.1Z"/>
  <path class="cls-1" d="M136,93.5c.4,0,1.2.6,1.8.6-3,.3-5.9,1.6-8.9,1.8,2-1.8,4.4-2.6,7.1-2.4h0Z"/>
  <path class="cls-1" d="M124.8,91.7c.4,2-1.4,1-3,1.2.7-1.1,1.8-1.1,3-1.2Z"/>
  <path class="cls-1" d="M128.3,90.6c-1.2.9.9.8-3,1.2l3-1.2Z"/>
  <path class="cls-14" d="M142.6,87v1.2l-10.1,1.8h-2.4c-1.1,0-2.3-.6-2.4-.6h1.2c.3,0,.5-.3.6-.6h.6c1.1-.1,2.1-.5,3-.6,2.2-.3,4.9-.4,7.1-.6s1.1-.6,1.2-.6h1.2,0Z"/>
  <path class="cls-6" d="M128.9,89.4c0-.3.3-.5.6-.6,0,.3-.2.5-.6.6Z"/>
  <path class="cls-14" d="M154.4,69.2c.1,0,1.3,1.7,1.2,1.8h-4.2c-1.4,0-.4,0-.6,0-1.4.1-2.8.4-4.2.6-.6-.8-2-.2-1.8-1.2l2.4-.6c1.8-.1,5.3-1.2,7.1-.6h.1Z"/>
  <path class="cls-5" d="M178.7,100c1.2,1.5,2.3,2,3.5,3.3l-.6.3c-3.1-1.8-6.9-3.5-9.5-5.9,2.9.5,3.8,1.3,6.5,2.4l.1-.1Z"/>
  <path class="cls-10" d="M178.7,100c0-.1.2-.7,0-1.1-.4-.5-2.1-.5-2.3-.7-.6-.6.4-1.8,1.2-1.2s0,.9.4,1.2c.9.6,4,1.8,4.2,2,.4.3,1.5,1.5,1.3,2.2-.6,1.4,0,2.2-1.8,1.2l.6-.3c-1.3-1.2-2.4-1.8-3.5-3.3h-.1Z"/>
  <path class="cls-1" d="M175.2,92.3l.9,1.8c.6,0,.1-1,.3-1.2s1.4,0,1.8,0l.6.6c.3.1.8,0,1.2,0l3.6,4.1c-1.9-.2-3.9-2.7-5.6-3s-1.3.5-.6,1.2c.9,1.1,6.3,2.8,8,3.5-1.2.5-1.2,1.8-1.8,3,.2-.7-.9-1.8-1.3-2.2s-3.3-1.4-4.2-2-.4-1.1-.4-1.2c-.8-.6-1.7.6-1.2,1.2s1.9.2,2.3.7,0,1,0,1.1c-2.7-1.1-3.6-1.8-6.5-2.4s-1-.3-1.8-.3c2.2-2.1-2.4-4.7-4.2-5.6,1.2.4,1.1-1.1,1.6-1.2,3.1-.7,4.7,1.9,7.3,1.8v.1Z"/>
  <path class="cls-5" d="M151.5,71.6c0-.1-.5-.4-.6-.6h.6v.6Z"/>
  <path class="cls-12" d="M153.8,88.8s0,.5-.9.6c-1.9.1-4.8-.7-5.6,1.2h-.6c0-.4.2-1.2-.3-1.2-2.9.7-6.7,0-9.2,1.8-1.8-.2-2.7-.9-4.7-1.2l10.1-1.8c3.7.4,7.8-1.1,11.3.6h-.1Z"/>
  <path class="cls-5" d="M141.4,87c-.1,0-.6.5-1.2.6l1.2-.6Z"/>
  <path class="cls-5" d="M198.3,114.9c.8-2.1-2.6-2.2-3-3.3-1.2-4.1,7.3,1.1,3.6,3.3h-.6Z"/>
  <path class="cls-6" d="M226.8,127.9c0-.3-.8-1.2-1.2-2.4l1.2,2.4Z"/>
  <path class="cls-6" d="M227.4,129.7s-.4-.5-.6-1.2l.6,1.2Z"/>
  <path class="cls-12" d="M210.2,152.2c-.3,0-.5-.3-.6-.6.3,0,.6.3.6.6Z"/>
  <path class="cls-6" d="M185.9,110.7c-.2-.2-.5-.3-.6-.6l.6.6Z"/>
  <path class="cls-5" d="M196.5,127.3c1.3.5,4.1,5.3.6,3-.4-.9-1.1-2.2-1.8-3,.4,0,.9-.1,1.2,0Z"/>
  <path class="cls-5" d="M196.5,126.1h-1.2l.6-.6s.5.1.6.6h0Z"/>
  <path class="cls-5" d="M137.2,91.2c2.5-1.8,6.2-1.1,9.2-1.8.6,0,.3.8.3,1.2-1.8.2-3.6.4-5.3.6-1.3-.1-2.9.2-4.2,0Z"/>
</svg>