<?xml version="1.0" encoding="UTF-8"?>
<svg id="Layer_1" data-name="Layer 1" xmlns="http://www.w3.org/2000/svg" viewBox="0 0 1785.9 328.6">
  <defs>
    <style>
      .cls-1 {
        fill: #eb7d3d;
      }
    </style>
  </defs>
  <path class="cls-1" d="M254.27,134.75c0,52.48-32.39,92.8-76.95,106.06-.68,1.64.68,2.87,2.6,4.78,16.26,15.58,45.38,41.68,70.8,49.89,11.75,3.83,22.28,4.51,29.52,4.51s10.8-.96,15.31-2.87c1.91.27,2.6,3.14,1.64,4.78-10.11,5.74-24.46,8.2-35.53,8.2s-32.66-3.14-51.53-11.75c-26.1-12.03-47.02-30.48-58.77-41.96-9.57-9.57-12.44-10.11-21.32-11.75-8.2-1.23-19.68-3.14-31.16-7.65-42.23-15.85-67.93-53.71-67.93-99.09S78.64,25.69,144.11,25.69s110.29,53.03,110.29,108.93l-.14.14ZM222.56,144.6c0-52.48-23.23-108.93-83.92-108.93S62.65,58.22,62.65,127.78s22.82,107.97,85.42,107.97,74.35-28.56,74.35-91.16h.14Z"/>
  <path class="cls-1" d="M298.82,119.72c0-25.28-1.78-26.1-17.22-29.38l-5.19-1.09c-2.6-1.78-2.19-8.06.68-9.16,12.44.68,23.92,1.09,35.67,1.09s23.1-.41,37.45-1.09c2.87,1.09,3.28,7.38.68,9.16l-6.97,1.09c-15.85,2.6-17.22,4.1-17.22,29.38v51.8c0,36.76,12.16,61.64,47.7,61.64s47.43-25.01,47.43-61.37v-34.17c0-36.76-2.19-45.1-18.04-47.43l-7.65-1.09c-2.6-2.19-2.19-7.38.68-9.16,11.75.68,20.23,1.09,30.89,1.09s18.72-.41,30.48-1.09c2.87,1.78,2.87,7.38.41,9.16l-11.07,1.09c-9.57,1.09-12.44,11.07-12.44,47.43v36.35c0,47.02-21.59,71.62-68.34,71.62s-41.14-4.78-52.07-15.44c-11.07-11.07-15.85-27.88-15.85-51.8v-58.77.14Z"/>
  <path class="cls-1" d="M514.63,183.68c-8.47,0-9.57.41-12.44,8.75l-8.47,23.51c-4.1,11.75-2.87,13.26,4.1,14.62l9.98,1.78c2.87,1.78,2.6,8.47-1.09,9.16-9.16-.68-18.72-1.09-28.97-1.09s-19.13.68-25.69,1.09c-3.28-1.5-3.28-7.38-.68-9.16l8.47-1.78c11.34-2.6,15.44-6.56,22.82-24.19l35.26-84.46c6.29-15.03,8.75-23.92,9.57-30.89,6.56-2.6,13.53-9.57,15.44-13.94,2.87-1.09,5.19-.41,5.88,1.78,1.5,3.69,7.38,22.82,15.85,45.1l33.07,87.74c4.37,12.16,7.65,16.95,20.91,19.41l5.88,1.09c3.28,1.78,2.6,8.47-1.09,9.16-9.57-.68-18.04-1.09-30.48-1.09s-23.92.41-33.07,1.09c-3.69-1.09-4.1-7.65-.68-9.16l7.38-1.09c9.57-1.5,9.16-3.69,4.78-15.03l-8.75-23.92c-2.87-8.47-4.1-8.75-12.44-8.75h-34.85l-.68.27ZM543.6,171.93c9.57,0,10.66-.68,6.56-11.34l-11.34-31.16c-2.87-8.47-4.37-11.34-5.47-13.26h-.68c-1.09,1.5-2.6,4.78-5.88,12.44l-13.26,32.66c-4.1,9.98-3.28,10.66,4.78,10.66h25.28Z"/>
  <path class="cls-1" d="M654.85,119.72c0-25.28-1.5-26.79-17.22-29.38l-6.97-1.09c-2.6-1.78-2.19-8.06.68-9.16,14.35.68,25.69,1.09,37.45,1.09s23.1-.41,35.26-1.09c2.87,1.09,3.28,7.38.68,9.16l-4.78,1.09c-15.44,3.69-17.22,4.1-17.22,29.38v79c0,11.34.68,21.59,4.1,25.28,3.28,3.28,9.16,5.88,28.29,5.88s35.94-1.09,46.61-30.48c2.6-2.6,8.47-1.78,9.57,1.5-1.78,15.44-6.97,33.76-11.07,40.73-23.1-.68-42.64-1.09-61.37-1.09h-30.07c-11.75,0-23.1.41-37.45,1.09-2.87-1.09-3.28-7.38-.68-9.16l6.97-1.09c15.85-2.6,17.22-4.1,17.22-29.38v-82.28h0Z"/>
  <path class="cls-1" d="M803.55,119.72c0-25.28-1.5-26.79-17.22-29.38l-6.97-1.09c-2.6-1.78-2.19-8.06.68-9.16,14.35.68,25.69,1.09,37.45,1.09s23.1-.41,37.45-1.09c2.87,1.09,3.28,7.38.68,9.16l-6.97,1.09c-15.85,2.6-17.22,4.1-17.22,29.38v82.28c0,25.28,1.5,26.79,17.22,29.38l6.97,1.09c2.6,1.78,2.19,8.06-.68,9.16-13.94-.68-26.1-1.09-37.45-1.09s-23.1.41-37.45,1.09c-2.87-1.09-3.28-7.38-.68-9.16l6.97-1.09c15.85-2.6,17.22-4.1,17.22-29.38v-82.28h0Z"/>
  <path class="cls-1" d="M936.53,101.41c0-9.57-.41-9.57-7.65-9.57h-11.34c-22.41,0-31.98,2.19-40.73,27.47-3.69,2.19-7.65,1.09-9.16-1.78,4.1-15.85,8.06-34.17,9.98-43.32,1.5-1.5,5.19-1.5,6.56,0,.41,7.38,5.47,6.97,20.23,6.97h102.09c13.53,0,16.13-.41,19.13-6.97,2.6-1.5,5.47-.68,6.56,1.09-2.87,9.57-4.37,28.97-3.69,42.91-1.5,2.87-7.65,3.28-9.16.41-2.6-23.92-12.16-26.79-34.17-26.79h-12.44c-6.97,0-8.06,0-8.06,9.57v100.59c0,25.28,1.5,27.47,17.22,29.38l9.98,1.09c2.6,1.78,2.19,8.06-.68,9.16-15.03-.68-28.97-1.09-40.32-1.09s-25.01.41-40.32,1.09c-2.87-1.09-3.28-7.38-.68-9.16l9.98-1.09c15.85-1.78,17.22-4.1,17.22-29.38v-100.59h-.55Z"/>
  <path class="cls-1" d="M1100.54,191.75c0-11.34-1.09-14.35-10.25-31.16l-26.79-49.61c-7.65-14.62-11.34-18.04-20.91-19.82l-9.57-1.78c-2.6-2.19-1.78-8.06,1.09-9.16,12.16.68,20.5,1.09,33.76,1.09s19.41-.41,31.16-1.09c2.87,1.5,4.1,7.38.41,9.16l-5.19,1.09c-8.06,1.78-9.16,4.1-3.28,15.44l13.53,26.1c5.88,11.07,11.07,20.91,16.54,30.48,5.88-9.98,11.34-18.72,17.63-30.48l14.62-26.79c5.47-10.25,6.29-13.53-2.6-14.62l-7.65-1.09c-3.28-1.78-2.87-7.65.68-9.16,11.07.68,19.41,1.09,27.88,1.09s15.85-.41,26.1-1.09c2.87,1.09,3.69,7.38.68,9.16l-8.75,1.78c-11.34,2.19-13.26,4.37-24.6,22.82l-22.82,36.76c-13.26,20.91-13.94,24.6-13.94,35.26v19.82c0,21.59,1.5,23.92,17.22,25.69l9.16,1.09c2.6,1.78,2.19,8.06-.68,9.16-16.13-.68-28.29-1.09-39.63-1.09s-23.1.41-39.63,1.09c-2.87-1.09-3.28-7.38-.68-9.16l9.16-1.09c15.85-1.78,17.22-4.1,17.22-25.69v-13.94l.14-.27Z"/>
  <path d="M1342.04,192.84c0,33.35.68,38.13,19,39.77l10.11.96c1.91,1.23,1.23,6.97-.68,7.93-18.04-.68-28.97-.96-41.68-.96s-23.78.27-44.15.96c-1.91-.96-2.6-6.29,0-7.93l11.48-.96c18.04-1.64,19.68-6.29,19.68-39.77V50.84c0-9.84,0-10.11-9.57-10.11h-17.49c-13.67,0-31.16.68-39.09,7.93-7.65,6.97-10.8,13.94-14.35,21.87-2.6,1.91-6.97.27-8.2-2.19,5.06-14.35,9.84-34.58,12.03-47.29.96-.68,5.06-.96,6.01,0,1.91,10.11,12.44,9.84,27.06,9.84h128.61c17.22,0,19.95-.68,24.74-8.88,1.64-.68,5.06-.27,5.74.96-3.55,12.98-5.74,38.81-4.78,48.25-1.23,2.6-6.7,2.6-8.2.68-.96-7.93-3.14-19.68-7.93-23.23-7.24-5.47-19.41-7.93-36.9-7.93h-22.55c-9.57,0-9.16.27-9.16,10.8v141.32h.27Z"/>
  <path d="M1467.91,119.72c0-25.28-1.5-26.38-15.44-29.38l-5.19-1.09c-2.6-1.5-2.19-7.65.68-9.16,10.66.68,22,1.09,34.17,1.09h52.07c16.13,0,30.89-.41,34.17-1.09l4.1,37.45c-1.5,2.87-7.38,3.28-9.57.68-2.19-9.57-4.37-14.35-6.56-17.63-5.88-8.75-22.41-8.75-31.16-8.75h-16.13c-12.85,0-13.26.41-13.26,11.75v40.73c0,6.56,0,7.38,6.97,7.38h17.22c19.41,0,21.32-2.87,24.19-13.94l1.78-6.97c1.78-2.6,7.38-2.19,9.16.68-.68,10.66-.68,17.22-.68,25.69s0,15.85.68,26.38c-1.78,2.87-7.38,3.28-9.16.68l-1.78-6.97c-2.87-11.07-4.78-13.94-24.19-13.94h-17.22c-6.97,0-6.97,1.09-6.97,8.47v26.38c0,11.07.68,22.41,4.1,26.38,3.28,3.69,9.98,5.19,30.89,5.19s37.04-1.09,47.7-30.48c2.6-2.6,8.47-1.78,9.57,1.5-1.78,15.44-6.97,33.76-11.07,40.73-23.1-.68-42.64-1.09-62.46-1.09h-32.25c-11.75,0-23.1.41-40.73,1.09-2.87-1.09-3.28-7.38-.68-9.16l9.98-1.09c15.85-1.78,17.22-4.1,17.22-29.38v-82.28l-.14.14Z"/>
  <path d="M1657.75,171.11c5.19-6.97,5.19-8.06.41-14.35l-37.86-50.3c-8.06-10.66-10.66-12.85-22.82-15.44l-8.75-1.78c-2.6-1.5-2.6-7.65.68-9.16,13.53.68,23.1,1.09,33.35,1.09s25.01-.41,32.25-1.09c3.28,1.09,4.1,7.38.68,9.16l-5.47,1.09c-6.97,1.5-7.65,4.78-2.19,12.16l16.95,22.82c6.29,8.47,9.57,13.26,13.53,18.04,3.69-4.78,7.38-9.57,13.26-18.04l18.04-25.28c3.69-5.19,2.87-8.06-4.78-9.57l-5.88-1.09c-3.69-1.5-3.69-7.65,0-9.16,12.85.68,21.59,1.09,30.07,1.09s15.85-.41,27.47-1.09c3.28,1.5,3.28,7.38.41,9.16l-11.34,1.78c-10.66,1.78-17.22,8.47-23.92,16.95l-30.07,37.04c-5.47,6.97-5.88,7.65-1.09,14.35l39.63,53.58c8.47,11.75,17.22,16.54,23.92,17.63l13.26,1.78c2.6,1.5,2.6,7.65-.41,9.16-13.26-.68-27.2-1.09-37.04-1.09s-24.6.41-35.67,1.09c-3.28-1.09-4.1-7.65-1.09-9.16l6.29-1.09c9.98-1.78,10.66-2.6,4.1-11.75l-18.04-25.01c-7.65-11.07-11.07-15.44-14.62-19.41-3.69,4.37-7.38,9.16-14.35,19.41l-18.31,26.38c-4.37,6.29-1.78,8.75,6.29,10.25l5.47,1.09c2.87,1.78,2.6,8.06-.68,9.16-11.34-.68-23.92-1.09-32.66-1.09s-19.13.41-30.07,1.09c-3.28-1.5-3.69-7.38-.68-9.16l11.34-1.09c13.26-1.09,21.32-9.57,28.29-18.31l32.25-41.82h-.14Z"/>
</svg>